<svg id="Layer_1" enable-background="new 0 0 128 128" viewBox="0 0 128 128" xmlns="http://www.w3.org/2000/svg"><g><path d="m64 0c-35.3 0-64 28.7-64 64s28.7 64 64 64 64-28.7 64-64-28.7-64-64-64zm0 124.5c-33.4 0-60.5-27.1-60.5-60.5s27.1-60.5 60.5-60.5 60.5 27.1 60.5 60.5-27.1 60.5-60.5 60.5z"/><path d="m64 10c-32.3 0-54 26.7-54 54 0 28.1 21.9 54 54 54 28.8 0 54-23.5 54-54 0-24.8-19.2-54-54-54zm43.6 55.7h6.8c-.4 12.2-5.2 23.8-13.6 32.7l-4.8-4.8c-.7-.7-1.8-.7-2.5 0s-.7 1.8 0 2.5l4.8 4.8c-8.9 8.3-20.5 13.1-32.7 13.6v-6.8c0-1-.8-1.8-1.8-1.8s-1.8.8-1.8 1.8v6.8c-12.2-.4-23.8-5.2-32.7-13.6l4.8-4.8c.7-.7.7-1.8 0-2.5s-1.8-.7-2.5 0l-4.8 4.8c-8-8.9-12.8-20.5-13.3-32.7h6.8c1 0 1.8-.8 1.8-1.8s-.8-1.8-1.8-1.8h-6.8c.4-12.2 5.2-23.8 13.6-32.7l4.8 4.8c.7.7 1.8.7 2.5 0s.7-1.8 0-2.4l-4.8-4.8c8.9-8.3 20.5-13.1 32.7-13.6v6.8c0 1 .8 1.8 1.8 1.8s1.8-.8 1.8-1.8v-6.8c12.2.4 23.8 5.2 32.7 13.6l-4.8 4.8c-.7.7-.7 1.8 0 2.5s1.8.7 2.5 0l4.8-4.8c8.3 8.9 13.1 20.5 13.6 32.7h-6.8c-1 0-1.8.8-1.8 1.8-.2 1 .6 1.8 1.5 1.7z"/><path d="m86.2 39.4-25 14c-3.8 1-6.8 4-7.8 7.8l-14 25c-.5.8-.2 1.9.7 2.4.5.3 1.2.3 1.7 0l25-14c3.8-1 6.8-4 7.8-7.8l14-25c.5-.8.2-1.9-.7-2.4-.5-.3-1.2-.3-1.7 0zm-32.5 28.4c1.1 3 3.5 5.4 6.5 6.5l-14.7 8.2zm10.3 3.7c-4.1 0-7.5-3.3-7.5-7.5 0-3.5 2.6-7.5 7.5-7.5 4.1 0 7.5 3.3 7.5 7.5s-3.3 7.5-7.5 7.5zm10.3-11.3c-1.1-3-3.5-5.4-6.5-6.5l14.7-8.2z"/><path d="m58.4 44.1c1 0 1.7-.8 1.8-1.8v-8.8l8.1 9.9c.6.7 1.7.9 2.5.2.4-.3.6-.8.6-1.3v-13.7c0-1-.8-1.8-1.8-1.8s-1.8.8-1.8 1.8v8.8l-8.1-9.9c-.6-.7-1.7-.9-2.5-.2-.4.3-.6.8-.6 1.3v13.7c0 1 .8 1.8 1.8 1.8z"/><path d="m62.4 87.4h7.3c1 0 1.8-.8 1.8-1.8s-.8-1.8-1.8-1.8h-7.3c-3.2 0-5.7 2.6-5.8 5.8v2.8c0 1 .8 1.8 1.8 1.8h9.5v1.1c0 1.2-1 2.2-2.3 2.3h-7.3c-1 0-1.8.8-1.8 1.8s.8 1.8 1.8 1.8h7.3c3.2 0 5.7-2.6 5.8-5.8v-2.8c0-1-.8-1.7-1.8-1.8h-9.5v-1.1c0-1.3 1-2.3 2.3-2.3z"/></g></svg>