<svg height="512pt" viewBox="0 0 512 512.00019" width="512pt" xmlns="http://www.w3.org/2000/svg"><path d="m66.585938 318.222656c6.066406-41.332031 6.066406-83.113281 0-124.441406l-29.285157-12.132812c10.796875 49.101562 10.796875 99.601562 0 148.703124zm0 0" fill="#fff"/><path d="m474.699219 181.648438-29.285157 12.132812c-6.066406 41.328125-6.066406 83.109375 0 124.441406l29.285157 12.128906c-10.800781-49.101562-10.800781-99.601562 0-148.703124zm0 0" fill="#fff"/><path d="m181.648438 37.300781 12.105468 29.226563c20.5625 2.988281 41.460938 4.507812 62.246094 4.507812 20.789062 0 41.6875-1.519531 62.246094-4.507812l12.105468-29.226563c-49.101562 10.796875-99.601562 10.796875-148.703124 0zm0 0" fill="#fff"/><path d="m433.933594 345.9375c-33.515625 24.9375-63.058594 54.480469-87.996094 87.996094l12.132812 29.285156c27.082032-42.355469 62.792969-78.0625 105.148438-105.148438zm0 0" fill="#fff"/><path d="m358.070312 48.78125-12.132812 29.289062c24.9375 33.511719 54.480469 63.054688 87.996094 87.992188l29.285156-12.128906c-42.355469-27.085938-78.066406-62.796875-105.148438-105.152344zm0 0" fill="#fff"/><path d="m318.246094 445.472656c-20.558594-2.988281-41.457032-4.507812-62.246094-4.507812s-41.6875 1.519531-62.246094 4.507812l-12.109375 29.230469c49.105469-10.800781 99.605469-10.800781 148.707031 0zm0 0" fill="#fff"/><path d="m153.929688 463.21875 12.132812-29.285156c-24.9375-33.515625-54.480469-63.058594-87.996094-87.996094l-29.285156 12.132812c42.355469 27.085938 78.0625 62.792969 105.148438 105.148438zm0 0" fill="#fff"/><path d="m78.066406 166.0625c33.511719-24.933594 63.058594-54.480469 87.996094-87.992188l-12.132812-29.289062c-27.085938 42.355469-62.792969 78.066406-105.148438 105.148438zm0 0" fill="#fff"/><path d="m511.304688 351.324219c-19.609376-62.359375-19.609376-128.289063 0-190.648438 2.183593-6.9375-.925782-14.4375-7.371094-17.800781-57.964844-30.230469-104.578125-76.84375-134.808594-134.808594-3.363281-6.445312-10.863281-9.554687-17.800781-7.375-62.359375 19.609375-128.289063 19.609375-190.648438 0-6.9375-2.179687-14.4375.929688-17.800781 7.375-30.230469 57.960938-76.847656 104.578125-134.808594 134.808594-6.449218 3.363281-9.554687 10.863281-7.375 17.800781 19.609375 62.363281 19.609375 128.289063 0 190.648438-2.179687 6.9375.925782 14.4375 7.375 17.800781 57.960938 30.230469 104.578125 76.847656 134.808594 134.808594 2.640625 5.066406 7.835938 8.066406 13.300781 8.066406 1.496094 0 3.011719-.226562 4.5-.691406 62.359375-19.609375 128.289063-19.609375 190.648438 0 6.9375 2.175781 14.4375-.925782 17.800781-7.375 30.230469-57.960938 76.84375-104.578125 134.808594-134.808594 6.449218-3.363281 9.554687-10.863281 7.371094-17.800781zm-412.800782-144.324219 35.445313 14.683594c1.3125 22.8125 1.3125 45.820312 0 68.636718l-35.445313 14.679688c3.511719-32.601562 3.511719-65.398438 0-98zm157.496094 9.804688-21.691406-52.371094c7.25.25 14.496094.390625 21.691406.390625 7.191406 0 14.4375-.140625 21.691406-.390625zm-27.714844 11.480468-52.242187-21.640625c10.539062-9.839843 20.761719-20.0625 30.601562-30.601562zm-11.480468 27.714844-52.246094 21.640625c.496094-14.414063.496094-28.867187 0-43.277344zm11.480468 27.714844-21.640625 52.242187c-9.839843-10.542969-20.0625-20.761719-30.601562-30.601562zm27.714844 11.484375 21.691406 52.367187c-7.253906-.25-14.5-.390625-21.691406-.390625-7.195312 0-14.441406.140625-21.691406.390625zm27.714844-11.484375 52.242187 21.640625c-10.539062 9.839843-20.761719 20.0625-30.601562 30.601562zm11.480468-27.714844 52.246094-21.640625c-.496094 14.414063-.496094 28.867187 0 43.28125zm-11.480468-27.714844 21.640625-52.242187c9.839843 10.539062 20.0625 20.761719 30.601562 30.601562zm82.855468-34.320312c-17.058593-15.203125-33.332031-31.472656-48.535156-48.53125l14.679688-35.449219c20.574218 25.539063 43.761718 48.726563 69.300781 69.300781zm-76.199218-60.140625c-11.460938.65625-22.984375 1-34.371094 1s-22.910156-.34375-34.371094-1l-14.664062-35.402344c16.28125 1.734375 32.691406 2.613281 49.035156 2.613281s32.75-.878906 49.035156-2.613281zm-96.40625 11.609375c-15.203125 17.058594-31.476563 33.328125-48.535156 48.53125l-35.445313-14.679688c25.539063-20.574218 48.726563-43.761718 69.296875-69.300781zm-48.535156 172.601562c17.0625 15.203125 33.332031 31.472656 48.535156 48.535156l-14.683594 35.445313c-20.570312-25.535156-43.757812-48.726563-69.296875-69.296875zm76.199218 60.136719c11.464844-.652344 22.984375-.996094 34.371094-.996094 11.382812 0 22.90625.34375 34.367188.996094l14.667968 35.40625c-16.285156-1.734375-32.691406-2.613281-49.035156-2.613281s-32.753906.878906-49.039062 2.613281zm96.40625-11.601563c15.203125-17.0625 31.472656-33.332031 48.535156-48.535156l35.445313 14.683594c-25.539063 20.570312-48.726563 43.761719-69.300781 69.296875zm60.015625-76.25c-1.316406-22.816406-1.316406-45.824218 0-68.636718l35.441407-14.683594c-3.507813 32.601562-3.507813 65.398438 0 98zm-340.75-108.671874 29.285157 12.132812c6.066406 41.328125 6.066406 83.109375 0 124.441406l-29.285157 12.128906c10.796875-49.101562 10.796875-99.601562 0-148.703124zm408.113281 136.574218c-6.066406-41.332031-6.066406-83.113281 0-124.441406l29.285157-12.132812c-10.800781 49.101562-10.800781 99.601562 0 148.703124zm-11.480468-152.160156c-33.515625-24.933594-63.058594-54.480469-87.996094-87.992188l12.132812-29.289062c27.082032 42.355469 62.789063 78.066406 105.148438 105.148438zm-115.6875-99.535156c-20.5625 2.988281-41.460938 4.507812-62.246094 4.507812-20.789062 0-41.6875-1.519531-62.246094-4.507812l-12.105468-29.226563c49.101562 10.800781 99.601562 10.800781 148.703124 0zm-164.316406-17.746094 12.132812 29.289062c-24.9375 33.511719-54.480469 63.058594-87.996094 87.992188l-29.285156-12.132812c42.355469-27.082032 78.0625-62.792969 105.148438-105.148438zm-75.863282 297.15625c33.515625 24.9375 63.058594 54.480469 87.996094 87.996094l-12.132812 29.285156c-27.085938-42.355469-62.792969-78.0625-105.148438-105.148438zm103.582032 128.765625 12.105468-29.230469c20.558594-2.988281 41.457032-4.507812 62.246094-4.507812s41.6875 1.519531 62.246094 4.507812l12.109375 29.230469c-49.105469-10.800781-99.605469-10.800781-148.707031 0zm176.421874-11.484375-12.132812-29.285156c24.9375-33.515625 54.480469-63.058594 87.992188-87.996094l29.289062 12.132812c-42.355469 27.085938-78.066406 62.792969-105.148438 105.148438zm0 0" fill="#bec3d2"/><path d="m511.304688 351.324219c-19.609376-62.359375-19.609376-128.289063 0-190.648438 2.183593-6.9375-.925782-14.4375-7.371094-17.800781-57.964844-30.230469-104.578125-76.84375-134.808594-134.808594-3.363281-6.445312-10.863281-9.554687-17.800781-7.375-31.152344 9.796875-63.191407 14.691406-95.234375 14.699219l-.132813 30c24.914063.003906 49.828125-2.6875 74.394531-8.089844l-12.105468 29.226563c-20.5625 2.988281-41.460938 4.507812-62.246094 4.507812v30c16.34375 0 32.75-.878906 49.035156-2.613281l-14.664062 35.402344c-11.460938.65625-22.984375 1-34.371094 1v30c7.191406 0 14.4375-.136719 21.691406-.386719l-21.691406 52.367188v78.394531l21.691406 52.367187c-7.253906-.25-14.5-.390625-21.691406-.390625v30c11.382812 0 22.90625.34375 34.367188 1l14.667968 35.402344c-16.285156-1.734375-32.691406-2.613281-49.035156-2.613281v30c20.785156 0 41.683594 1.519531 62.246094 4.507812l12.105468 29.230469c-24.550781-5.402344-49.453124-8.09375-74.351562-8.09375v30c32.070312 0 64.144531 4.894531 95.324219 14.699219 6.9375 2.175781 14.4375-.925782 17.800781-7.375 30.226562-57.960938 76.84375-104.578125 134.808594-134.808594 6.449218-3.363281 9.554687-10.863281 7.371094-17.800781zm-153.234376-302.542969c27.082032 42.355469 62.792969 78.066406 105.148438 105.148438l-29.285156 12.132812c-33.511719-24.9375-63.058594-54.480469-87.996094-87.996094zm55.425782 256.21875-35.445313-14.679688c-1.3125-22.816406-1.3125-45.824218 0-68.636718l35.445313-14.683594c-3.511719 32.601562-3.511719 65.398438 0 98zm-80.78125-195.015625c20.574218 25.539063 43.761718 48.726563 69.300781 69.300781l-35.445313 14.679688c-17.058593-15.203125-33.332031-31.472656-48.535156-48.53125zm14.722656 167.65625-52.242188-21.640625 52.242188-21.640625c-.492188 14.414063-.492188 28.867187 0 43.28125zm-42.082031-101.597656c9.839843 10.539062 20.0625 20.761719 30.601562 30.601562l-52.242187 21.640625zm-21.640625 107.671875 52.242187 21.640625c-10.539062 9.839843-20.761719 20.0625-30.601562 30.601562zm34.320312 82.855468c15.203125-17.0625 31.472656-33.332031 48.535156-48.535156l35.445313 14.683594c-25.539063 20.570312-48.726563 43.761719-69.300781 69.296875zm40.035156 96.648438-12.132812-29.285156c24.9375-33.515625 54.480469-63.058594 87.992188-87.996094l29.289062 12.132812c-42.355469 27.085938-78.066406 62.792969-105.148438 105.148438zm116.628907-132.867188-29.285157-12.128906c-6.066406-41.332031-6.066406-83.113281 0-124.441406l29.285157-12.132812c-10.800781 49.101562-10.800781 99.601562 0 148.703124zm0 0" fill="#7e8596"/><g fill="#fff"><path d="m179.28125 402.015625 14.683594-35.449219c-15.203125-17.058594-31.476563-33.328125-48.535156-48.53125l-35.445313 14.683594c25.539063 20.570312 48.726563 43.757812 69.296875 69.296875zm0 0"/><path d="m305.035156 413.578125-14.664062-35.402344c-11.464844-.65625-22.984375-1-34.371094-1-11.382812 0-22.90625.34375-34.371094 1l-14.664062 35.402344c16.285156-1.734375 32.691406-2.613281 49.035156-2.613281s32.753906.878906 49.035156 2.613281zm0 0"/><path d="m402.015625 332.71875-35.445313-14.683594c-17.0625 15.203125-33.332031 31.472656-48.535156 48.53125l14.679688 35.449219c20.574218-25.539063 43.761718-48.726563 69.300781-69.296875zm0 0"/><path d="m133.949219 290.320312c1.3125-22.816406 1.3125-45.824218 0-68.636718l-35.445313-14.683594c3.511719 32.601562 3.511719 65.398438 0 98zm0 0"/><path d="m413.496094 207-35.445313 14.683594c-1.3125 22.8125-1.3125 45.820312 0 68.636718l35.445313 14.679688c-3.511719-32.601562-3.511719-65.398438 0-98zm0 0"/><path d="m109.984375 179.285156 35.445313 14.679688c17.058593-15.203125 33.332031-31.472656 48.535156-48.53125l-14.683594-35.449219c-20.570312 25.539063-43.757812 48.726563-69.296875 69.300781zm0 0"/><path d="m332.714844 109.984375-14.679688 35.449219c15.203125 17.058594 31.476563 33.328125 48.535156 48.53125l35.445313-14.679688c-25.539063-20.574218-48.726563-43.761718-69.300781-69.300781zm0 0"/><path d="m206.964844 98.421875 14.664062 35.402344c11.460938.65625 22.980469 1 34.371094 1 11.386719 0 22.910156-.34375 34.371094-1l14.664062-35.402344c-16.285156 1.734375-32.691406 2.613281-49.035156 2.613281s-32.753906-.878906-49.035156-2.613281zm0 0"/><path d="m234.308594 164.4375 21.691406 52.367188 21.691406-52.367188c-7.25.25-14.496094.386719-21.691406.386719s-14.441406-.136719-21.691406-.386719zm0 0"/><path d="m176.042969 206.644531 52.242187 21.640625-21.640625-52.242187c-9.839843 10.542969-20.0625 20.761719-30.601562 30.601562zm0 0"/><path d="m335.957031 305.355469-52.242187-21.640625 21.640625 52.242187c9.839843-10.539062 20.0625-20.761719 30.601562-30.601562zm0 0"/><path d="m305.355469 176.042969-21.640625 52.242187 52.242187-21.640625c-10.539062-9.839843-20.761719-20.058593-30.601562-30.601562zm0 0"/><path d="m277.691406 347.566406-21.691406-52.367187-21.691406 52.367187c7.25-.25 14.496094-.390625 21.691406-.390625 7.191406 0 14.4375.140625 21.691406.390625zm0 0"/><path d="m164.558594 277.640625 52.246094-21.640625-52.246094-21.640625c.496094 14.414063.496094 28.867187 0 43.28125zm0 0"/><path d="m206.644531 335.957031 21.636719-52.242187-52.242188 21.640625c10.542969 9.839843 20.765626 20.0625 30.605469 30.601562zm0 0"/><path d="m347.4375 234.359375-52.242188 21.640625 52.242188 21.640625c-.492188-14.414063-.492188-28.867187 0-43.28125zm0 0"/></g></svg>