<svg id="Layer_3" enable-background="new 0 0 64 64" height="512" viewBox="0 0 64 64" width="512" xmlns="http://www.w3.org/2000/svg"><g><path d="m45.918 56.084.082-.084.05-.05c3.213-3.213 5.297-7.381 5.94-11.879l.01-.071 4 4v-2.041c0-4.478-1.669-8.795-4.681-12.108l-2.856-3.141c-1.585-1.744-2.463-4.016-2.463-6.372v-.102c0-1.471.342-2.921 1-4.236.658-1.315 1-2.766 1-4.236v-.107c0-3.622-1.439-7.096-4-9.657-2.561-2.561-6.035-4-9.657-4h-4.686c-3.622 0-7.096 1.439-9.657 4-2.561 2.561-4 6.035-4 9.657v.107c0 1.471.342 2.921 1 4.236.658 1.315 1 2.766 1 4.236v.102c0 2.356-.878 4.628-2.463 6.372l-2.856 3.141c-3.012 3.313-4.681 7.63-4.681 12.108v2.041l4-4 .01.07c.643 4.498 2.727 8.666 5.94 11.879l.05.051.082.084" fill="#4d5d7a"/><path d="m35.75 9c3.605 0 6.809 2.619 7.205 6.202.379 3.419-1.71 6.405-4.708 7.422 5.165 4.469 8.753 13.901 8.753 22.376 0 11.598-6.716 17-15 17s-15-5.402-15-17c0-8.475 3.588-17.907 8.752-22.376-2.998-1.017-5.086-4.003-4.708-7.422.397-3.583 3.601-6.202 7.206-6.202h.579c.646 0 1.171.525 1.171 1.172 0 1.811.719 3.548 2 4.828 1.281-1.281 2-3.017 2-4.828 0-.647.525-1.172 1.172-1.172z" fill="#ebf7fe"/><path d="m36 27.016c0-5.003-1.002-9.693-2.747-13.751-.322.634-.74 1.222-1.253 1.735-1.281-1.281-2-3.017-2-4.828 0-.647-.525-1.172-1.172-1.172h-.578c-3.605 0-6.809 2.619-7.205 6.202-.379 3.419 1.71 6.405 4.708 7.422-5.165 4.469-8.753 13.901-8.753 22.376 0 3.765.717 6.867 1.957 9.353 9.707-2.47 17.043-13.767 17.043-27.337z" fill="#fff"/><g fill="#f5b953"><path d="m45 56c-2.761 0-5 2.239-5 5v1h10v-1c0-2.761-2.239-5-5-5z"/><path d="m19 56c2.761 0 5 2.239 5 5v1h-10v-1c0-2.761 2.239-5 5-5z"/><path d="m36 19-4-1-4 1 4 5z"/></g><g><path d="m29 16h-2c0-.551-.448-1-1-1s-1 .449-1 1h-2c0-1.654 1.346-3 3-3s3 1.346 3 3z" fill="#4d5d7a"/></g><g><path d="m41 16h-2c0-.551-.448-1-1-1s-1 .449-1 1h-2c0-1.654 1.346-3 3-3s3 1.346 3 3z" fill="#4d5d7a"/></g><g><path d="m18 59h2v3h-2z" fill="#f9d18b"/></g><g><path d="m44 59h2v3h-2z" fill="#f9d18b"/></g></g></svg>