<svg height="512" viewBox="0 0 50 58" width="512" xmlns="http://www.w3.org/2000/svg"><g id="Page-1" fill="none" fill-rule="evenodd"><g id="032---Well" fill-rule="nonzero"><path id="Shape" d="m33 31c-.5522847 0-1-.4477153-1-1 0-3.668-2.17-6.859-5.278-7.76-.5238948-.1587444-.8227807-.7092168-.6705868-1.2350519.1521938-.5258352.6988932-.8315677 1.2265868-.6859481 3.958 1.147 6.722 5.128 6.722 9.681 0 .5522847-.4477153 1-1 1z" fill="#bdc3c7"/><path id="Shape" d="m17 31c-.5522847 0-1-.4477153-1-1 0-4.553 2.764-8.534 6.722-9.681.5276936-.1456196 1.074393.1601129 1.2265868.6859481.1521939.5258351-.146692 1.0763075-.6705868 1.2350519-3.108.901-5.278 4.092-5.278 7.76 0 .5522847-.4477153 1-1 1z" fill="#bdc3c7"/><path id="Shape" d="m33.73 37 1.06-5.82c.0536161-.2929681-.0261463-.5945883-.2175745-.8227553-.1914283-.228167-.4745977-.3591321-.7724255-.3572447h-17.6c-.2978278-.0018874-.5809972.1290777-.7724255.3572447-.1914282.228167-.2711906.5297872-.2175745.8227553l1.06 5.82 8.73 2z" fill="#7f8c8d"/><path id="Shape" d="m3 42h44v14c0 1.1045695-.8954305 2-2 2h-40c-1.1045695 0-2-.8954305-2-2z" fill="#7f6e5d"/><path id="Shape" d="m10 50h-2c-.55228475 0-1-.4477153-1-1s.44771525-1 1-1h2c.5522847 0 1 .4477153 1 1s-.4477153 1-1 1z" fill="#cbb292"/><path id="Shape" d="m26 50h-12c-.5522847 0-1-.4477153-1-1s.4477153-1 1-1h12c.5522847 0 1 .4477153 1 1s-.4477153 1-1 1z" fill="#cbb292"/><path id="Shape" d="m27 13h20c1.1011688-.0081672 1.9918328-.8988312 2-2-.0032948-1.10320187-.8967981-1.9967052-2-2h-44c-1.10116878.00816722-1.99183278.89883122-2 2 .0032948 1.1032019.89679813 1.9967052 2 2z" fill="#603e26"/><path id="Shape" d="m5 39v-36c0-1.65685425 1.34314575-3 3-3s3 1.34314575 3 3v36" fill="#a56a43"/><path id="Shape" d="m39 39v-36c.0000001-1.6568542 1.3431458-2.99999987 3-2.99999987s2.9999999 1.34314567 3 2.99999987v36" fill="#a56a43"/><rect id="Rectangle-path" fill="#a59078" height="7" rx="2" width="50" y="37"/><rect id="Rectangle-path" fill="#e4c05c" height="10" rx="2" width="4" x="11" y="6"/><rect id="Rectangle-path" fill="#b19046" height="10" rx="2" width="4" x="15" y="6"/><rect id="Rectangle-path" fill="#e4c05c" height="10" rx="2" width="4" x="19" y="6"/><rect id="Rectangle-path" fill="#b19046" height="18" rx="2" width="4" x="23" y="6"/></g></g></svg>