<svg height="512pt" viewBox="0 0 512 512" width="512pt" xmlns="http://www.w3.org/2000/svg"><path d="m422.601562 227.554688v24.382812c0 60.625-36.894531 112.636719-89.394531 134.742188-10.324219 4.390624-21.210937 7.640624-32.507812 9.429687-7.882813 1.382813-16.09375 2.113281-24.382813 2.113281-14.140625 0-27.710937-2.03125-40.632812-5.769531-11.460938-3.25-22.351563-7.964844-32.507813-13.898437-43.726562-25.191407-73.144531-72.492188-73.144531-126.617188v-24.382812zm0 0" fill="#ebe6c1"/><path d="m325.078125 24.382812v12.351563c-28.445313 9.996094-48.761719 37.058594-48.761719 68.917969v-81.269532c0-13.492187 10.890625-24.382812 24.382813-24.382812 6.742187 0 12.839843 2.761719 17.226562 7.152344 4.390625 4.386718 7.152344 10.484375 7.152344 17.230468zm0 0" fill="#bc0431"/><path d="m373.839844 24.382812v12.351563c-7.636719-2.765625-15.847656-4.226563-24.378906-4.226563-8.535157 0-16.742188 1.460938-24.382813 4.226563v-12.351563c0-13.492187 10.890625-24.382812 24.382813-24.382812 6.746093 0 12.839843 2.761719 17.226562 7.152344 4.390625 4.386718 7.152344 10.484375 7.152344 17.230468zm0 0" fill="#db002d"/><path d="m422.601562 24.382812v81.269532c0-20.15625-8.207031-38.523438-21.453124-51.6875-7.558594-7.640625-16.90625-13.574219-27.308594-17.230469v-12.351563c0-13.492187 10.890625-24.382812 24.382812-24.382812 6.746094 0 12.839844 2.761719 17.226563 7.152344 4.390625 4.386718 7.152343 10.484375 7.152343 17.230468zm0 0" fill="#bc0431"/><path d="m422.601562 105.652344v121.902344h-146.285156v-121.902344c0-31.859375 20.320313-58.921875 48.761719-68.917969 7.640625-2.765625 15.847656-4.226563 24.382813-4.226563 8.535156 0 16.742187 1.460938 24.382812 4.226563 10.402344 3.65625 19.746094 9.589844 27.304688 17.230469 13.246093 13.164062 21.453124 31.53125 21.453124 51.6875zm0 0" fill="#ebe6c1"/><path d="m349.460938 186.921875v23.636719c0 9.386718 7.609374 16.996094 17 16.996094 13.574218 0 21.675781-15.128907 14.144531-26.425782zm0 0" fill="#db002d"/><path d="m349.460938 186.921875v23.636719c0 9.386718-7.609376 16.996094-17 16.996094-13.578126 0-21.675782-15.128907-14.144532-26.425782zm0 0" fill="#db002d"/><path d="m300.699219 276.316406c-13.464844 0-24.382813-10.914062-24.382813-24.378906v-24.382812h48.761719v24.382812c0 13.464844-10.914063 24.378906-24.378906 24.378906zm0 0" fill="#fdcf00"/><path d="m349.460938 276.316406c-13.464844 0-24.382813-10.914062-24.382813-24.378906v-24.382812h48.761719v24.382812c0 13.464844-10.914063 24.378906-24.378906 24.378906zm0 0" fill="#fdcf00"/><path d="m398.222656 276.316406c-13.464844 0-24.382812-10.914062-24.382812-24.378906v-24.382812h48.761718v24.382812c0 13.464844-10.914062 24.378906-24.378906 24.378906zm0 0" fill="#fdcf00"/><path d="m130.03125 227.554688v-24.378907c0-8.976562-7.277344-16.253906-16.253906-16.253906-8.976563 0-16.253906 7.277344-16.253906 16.253906v65.015625c0 8.976563-7.277344 16.253906-16.253907 16.253906-8.976562 0-16.253906-7.277343-16.253906-16.253906v-65.015625c0-26.929687 21.832031-48.761719 48.761719-48.761719 26.933594 0 48.761718 21.832032 48.761718 48.761719v24.378907zm0 0" fill="#db002d"/><path d="m195.046875 203.175781v24.378907h-32.507813v-24.378907c0-26.929687-21.832031-48.761719-48.761718-48.761719-26.929688 0-48.761719 21.832032-48.761719 48.761719v80.277344c0 8.105469-5.484375 15.667969-13.476563 17.011719-10.152343 1.707031-19.03125-6.167969-19.03125-16.019532v-81.269531c0-44.886719 36.386719-81.269531 81.269532-81.269531 44.882812 0 81.269531 36.382812 81.269531 81.269531zm0 0" fill="#fdcf00"/><path d="m227.554688 203.175781v24.378907h-32.507813v-24.378907c0-44.886719-36.386719-81.269531-81.269531-81.269531-44.882813 0-81.269532 36.382812-81.269532 81.269531v97.523438c0 8.976562-7.277343 16.253906-16.253906 16.253906-8.976562 0-16.253906-7.277344-16.253906-16.253906v-97.523438c0-62.839843 50.941406-113.777343 113.777344-113.777343 62.839844 0 113.777344 50.9375 113.777344 113.777343zm0 0" fill="#008bc2"/><path d="m203.175781 325.078125c-40.398437 0-73.144531-32.746094-73.144531-73.140625v-24.382812h146.285156v24.382812c0 40.394531-32.746094 73.140625-73.140625 73.140625zm0 0" fill="#008bc2"/><g fill="#ffb281"><path d="m316.953125 479.492188c-4.488281 0-8.128906-3.640626-8.128906-8.125v-32.511719c0-4.488281 3.640625-8.125 8.128906-8.125s8.125 3.640625 8.125 8.125v32.511719c0 4.484374-3.636719 8.125-8.125 8.125zm0 0"/><path d="m390.09375 512c-4.488281 0-8.125-3.640625-8.125-8.125 0-4.480469-3.648438-8.128906-8.128906-8.128906h-8.125c-4.488282 0-8.125-3.640625-8.125-8.125 0-4.488282 3.636718-8.128906 8.125-8.128906h8.125c13.445312 0 24.382812 10.9375 24.382812 24.382812 0 4.484375-3.640625 8.125-8.128906 8.125zm0 0"/><path d="m276.316406 446.984375c-4.488281 0-8.125-3.640625-8.125-8.128906 0-13.441407 10.9375-24.378907 24.378906-24.378907h8.128907c4.488281 0 8.125 3.640626 8.125 8.125 0 4.488282-3.636719 8.128907-8.125 8.128907h-8.128907c-4.476562 0-8.125 3.644531-8.125 8.125 0 4.488281-3.640624 8.128906-8.128906 8.128906zm0 0"/><path d="m219.429688 479.492188c-4.488282 0-8.128907-3.640626-8.128907-8.125v-32.511719c0-4.488281 3.640625-8.125 8.128907-8.125 4.488281 0 8.125 3.640625 8.125 8.125v32.511719c0 4.484374-3.636719 8.125-8.125 8.125zm0 0"/><path d="m146.285156 512c-4.488281 0-8.125-3.640625-8.125-8.125 0-13.445312 10.9375-24.382812 24.378906-24.382812h8.128907c4.488281 0 8.125 3.640624 8.125 8.125 0 4.488281-3.636719 8.128906-8.125 8.128906h-8.128907c-4.480468 0-8.125 3.644531-8.125 8.125 0 4.488281-3.640624 8.128906-8.128906 8.128906zm0 0"/><path d="m260.0625 446.984375c-4.488281 0-8.125-3.640625-8.125-8.128906 0-4.476563-3.648438-8.125-8.128906-8.125h-8.125c-4.488282 0-8.128906-3.640625-8.128906-8.125 0-4.488281 3.640624-8.128907 8.128906-8.128907h8.125c13.445312 0 24.382812 10.9375 24.382812 24.382813 0 4.484375-3.640625 8.125-8.128906 8.125zm0 0"/></g><path d="m422.601562 97.523438c0 17.953124-14.554687 32.507812-32.507812 32.507812s-32.507812-14.554688-32.507812-32.507812c0-17.953126 14.554687-32.507813 32.507812-32.507813s32.507812 14.554687 32.507812 32.507813zm0 0" fill="#fff9de"/><path d="m341.332031 97.523438c0 17.953124-14.550781 32.507812-32.507812 32.507812-17.953125 0-32.507813-14.554688-32.507813-32.507812 0-17.953126 14.554688-32.507813 32.507813-32.507813 17.957031 0 32.507812 14.554687 32.507812 32.507813zm0 0" fill="#fff9de"/><path d="m308.824219 105.652344c0 8.976562-7.277344 16.253906-16.253907 16.253906-8.976562 0-16.253906-7.277344-16.253906-16.253906 0-8.980469 7.277344-16.257813 16.253906-16.257813 8.976563 0 16.253907 7.277344 16.253907 16.257813zm0 0" fill="#453234"/><path d="m292.570312 97.523438c0 4.488281-3.636718 8.128906-8.125 8.128906-4.488281 0-8.128906-3.640625-8.128906-8.128906 0-4.488282 3.640625-8.125 8.128906-8.125 4.488282 0 8.125 3.636718 8.125 8.125zm0 0" fill="#fff"/><path d="m300.699219 117.839844c0 2.246094-1.820313 4.066406-4.066407 4.066406-2.242187 0-4.0625-1.820312-4.0625-4.066406 0-2.242188 1.820313-4.0625 4.0625-4.0625 2.246094 0 4.066407 1.820312 4.066407 4.0625zm0 0" fill="#fff"/><path d="m422.605469 105.652344c0 8.976562-7.277344 16.253906-16.257813 16.253906-8.976562 0-16.253906-7.277344-16.253906-16.253906 0-8.980469 7.277344-16.257813 16.253906-16.257813 8.980469 0 16.257813 7.277344 16.257813 16.257813zm0 0" fill="#453234"/><path d="m422.601562 97.523438c0 4.488281-3.636718 8.128906-8.125 8.128906-4.488281 0-8.128906-3.640625-8.128906-8.128906 0-4.488282 3.640625-8.125 8.128906-8.125 4.488282 0 8.125 3.636718 8.125 8.125zm0 0" fill="#fff"/><path d="m406.347656 117.839844c0 2.246094-1.816406 4.066406-4.0625 4.066406-2.242187 0-4.0625-1.820312-4.0625-4.066406 0-2.242188 1.820313-4.0625 4.0625-4.0625 2.246094 0 4.0625 1.820312 4.0625 4.0625zm0 0" fill="#fff"/><path d="m390.09375 154.414062h-81.269531c0-17.953124 14.554687-32.507812 32.507812-32.507812h16.253907c17.953124 0 32.507812 14.550781 32.507812 32.507812zm0 0" fill="#f6dd00"/><path d="m349.460938 186.921875c-17.953126 0-32.507813-14.554687-32.507813-32.507813h65.015625c0 17.953126-14.554688 32.507813-32.507812 32.507813zm0 0" fill="#fdcf00"/><path d="m333.207031 386.679688v35.921874c0 8.941407-7.316406 16.253907-16.253906 16.253907-8.941406 0-16.253906-7.3125-16.253906-16.253907v-26.492187c11.296875-1.789063 22.183593-5.039063 32.507812-9.429687zm0 0" fill="#eadb86"/><path d="m349.460938 503.875h-65.015626c-8.976562 0-16.253906-7.277344-16.253906-16.253906 0-8.976563 7.277344-16.253906 16.253906-16.253906h65.015626c8.976562 0 16.253906 7.277343 16.253906 16.253906 0 8.972656-7.277344 16.253906-16.253906 16.253906zm0 0" fill="#fdcf00"/><path d="m235.683594 392.453125v30.148437c0 8.941407-7.316406 16.253907-16.253906 16.253907-8.941407 0-16.257813-7.3125-16.257813-16.253907v-44.046874c10.160156 5.933593 21.050781 10.644531 32.511719 13.898437zm0 0" fill="#eadb86"/><path d="m186.921875 503.875h65.015625c8.976562 0 16.253906-7.277344 16.253906-16.253906 0-8.976563-7.277344-16.253906-16.253906-16.253906h-65.015625c-8.976563 0-16.253906 7.277343-16.253906 16.253906 0 8.972656 7.277343 16.253906 16.253906 16.253906zm0 0" fill="#fdcf00"/><path d="m446.984375 154.414062c0 13.464844-10.917969 24.378907-24.382813 24.378907-13.464843 0-24.378906-10.914063-24.378906-24.378907 0-13.464843 10.914063-24.382812 24.378906-24.382812 13.464844 0 24.382813 10.917969 24.382813 24.382812zm0 0" fill="#fa4c52"/><path d="m300.699219 154.414062c0 13.464844-10.917969 24.378907-24.382813 24.378907s-24.378906-10.914063-24.378906-24.378907c0-13.464843 10.914062-24.382812 24.378906-24.382812s24.382813 10.917969 24.382813 24.382812zm0 0" fill="#fa4c52"/><path d="m503.875 512h-4.066406c-11.203125 0-20.316406-9.117188-20.316406-20.316406 0-2.242188-1.820313-4.066406-4.0625-4.066406-2.242188 0-4.0625 1.824218-4.0625 4.066406 0 11.199218-9.117188 20.316406-20.320313 20.316406s-20.316406-9.117188-20.316406-20.316406c0-2.242188-1.820313-4.066406-4.0625-4.066406h-4.066407c-4.488281 0-8.125-3.636719-8.125-8.125 0-4.488282 3.640626-8.125 8.125-8.125h4.066407c11.199219 0 20.316406 9.113281 20.316406 20.316406 0 2.242187 1.820313 4.0625 4.0625 4.0625s4.0625-1.820313 4.0625-4.0625c0-11.203125 9.117187-20.316406 20.320313-20.316406 11.203124 0 20.316406 9.113281 20.316406 20.316406 0 2.242187 1.820312 4.0625 4.0625 4.0625h4.066406c4.488281 0 8.125 3.640625 8.125 8.128906 0 4.484375-3.640625 8.125-8.125 8.125zm0 0" fill="#abcd00"/><path d="m430.730469 455.109375c-4.488281 0-8.128907-3.636719-8.128907-8.125v-8.128906c0-4.488281 3.640626-8.125 8.128907-8.125s8.125 3.640625 8.125 8.125v8.128906c0 4.488281-3.636719 8.125-8.125 8.125zm0 0" fill="#fdcf00"/><path d="m446.984375 463.238281c-2.078125 0-4.160156-.792969-5.746094-2.382812-3.175781-3.171875-3.175781-8.316407 0-11.492188l8.125-8.125c3.175781-3.175781 8.320313-3.175781 11.492188 0 3.175781 3.175781 3.175781 8.316407 0 11.492188l-8.125 8.125c-1.585938 1.589843-3.667969 2.382812-5.746094 2.382812zm0 0" fill="#fdcf00"/><path d="m414.476562 463.238281c-2.078124 0-4.160156-.792969-5.746093-2.382812l-8.128907-8.125c-3.171874-3.175781-3.171874-8.316407 0-11.492188 3.175782-3.175781 8.320313-3.175781 11.492188 0l8.128906 8.125c3.175782 3.175781 3.175782 8.320313 0 11.492188-1.585937 1.589843-3.667968 2.382812-5.746094 2.382812zm0 0" fill="#fdcf00"/></svg>