<svg id="Capa_1" enable-background="new 0 0 512 512" height="512" viewBox="0 0 512 512" width="512" xmlns="http://www.w3.org/2000/svg"><g><g fill="#efedff"><path d="m487.341 246.248c-12.945-4.312-31.309-8.159-54.579-11.437-47.271-6.657-110.046-10.324-176.762-10.324s-129.491 3.667-176.762 10.324c-23.271 3.277-41.634 7.125-54.579 11.437-10.586 3.524-24.659 9.509-24.659 20.739 0 4.143 3.357 7.5 7.5 7.5 3.912 0 7.125-2.995 7.47-6.817 1.246-1.456 11.525-10.878 73.087-18.917 45.755-5.975 105.397-9.266 167.943-9.266s122.188 3.291 167.943 9.266c61.562 8.039 71.841 17.461 73.087 18.917.345 3.822 3.558 6.817 7.47 6.817 4.143 0 7.5-3.357 7.5-7.5 0-11.23-14.073-17.215-24.659-20.739z"/><path d="m403.679 344.217c-20.504-41.218-54.584-88.485-95.962-133.097-69.388-74.808-143.721-125.071-184.968-125.071-10.811 0-19.351 3.297-25.383 9.801-2.816 3.037-2.639 7.782.398 10.599 3.038 2.816 7.783 2.637 10.6-.398 3.078-3.319 7.918-5.001 14.385-5.001 17.119 0 43.343 11.393 73.84 32.079 32.333 21.932 66.957 52.428 100.13 88.193 87.457 94.289 126.54 183.57 106.917 204.726-2.816 3.037-2.639 7.782.398 10.6 1.444 1.339 3.273 2.001 5.099 2.001 2.015 0 4.022-.807 5.501-2.399 18.736-20.202 4.385-61.198-10.955-92.033z"/><path d="m414.634 95.85c-6.032-6.503-14.572-9.801-25.383-9.801-41.247 0-115.58 50.263-184.968 125.071-41.378 44.611-75.458 91.879-95.962 133.097-15.34 30.835-29.691 71.831-10.955 92.031 1.479 1.593 3.486 2.399 5.501 2.399 1.825 0 3.655-.662 5.099-2.001 3.037-2.817 3.215-7.563.398-10.6-19.623-21.155 19.46-110.437 106.917-204.726 33.173-35.766 67.797-66.262 100.13-88.193 30.497-20.687 56.721-32.079 73.84-32.079 6.467 0 11.307 1.683 14.385 5.001 2.818 3.037 7.563 3.215 10.6.398 3.036-2.815 3.214-7.56.398-10.597z"/></g><g><path d="m311 120.454c-17.03-6.715-35.584-10.404-55-10.404-82.843 0-150 67.157-150 150s67.157 150 150 150c19.416 0 37.97-3.689 55-10.404 55.633-21.937 95-76.169 95-139.596s-39.367-117.66-95-139.596z" fill="#53a3ec"/><path d="m216 260.049c0-63.427 39.367-117.659 95-139.596-17.03-6.715-35.584-10.404-55-10.404-82.843 0-150 67.157-150 150s67.157 150 150 150c19.416 0 37.97-3.689 55-10.404-55.633-21.936-95-76.169-95-139.596z" fill="#4293dd"/></g><g><g><g><g><ellipse cx="176.443" cy="235.909" fill="#ff8e9e" rx="29.355" ry="23.377"/></g><g><ellipse cx="335.557" cy="235.909" fill="#ff8e9e" rx="29.355" ry="23.377"/></g></g></g></g><g fill="#efedff"><path d="m504.5 259.487c-3.912 0-7.125 2.995-7.47 6.817-1.246 1.456-11.525 10.878-73.087 18.917-45.755 5.975-105.397 9.266-167.943 9.266s-122.188-3.291-167.943-9.266c-61.562-8.039-71.841-17.461-73.087-18.917-.345-3.822-3.558-6.817-7.47-6.817-4.143 0-7.5 3.357-7.5 7.5 0 11.229 14.073 17.215 24.659 20.739 12.945 4.312 31.309 8.159 54.579 11.437 47.271 6.657 110.046 10.324 176.762 10.324s129.491-3.667 176.762-10.324c23.271-3.277 41.634-7.125 54.579-11.437 10.586-3.524 24.659-9.51 24.659-20.739 0-4.143-3.357-7.5-7.5-7.5z"/><path d="m414.634 95.85c-2.817-3.036-7.563-3.216-10.6-.398-3.037 2.817-3.215 7.562-.398 10.599 19.623 21.155-19.46 110.436-106.917 204.726-33.173 35.766-67.798 66.262-100.13 88.193-30.497 20.687-56.721 32.079-73.84 32.079-6.467 0-11.307-1.683-14.385-5.002-2.817-3.035-7.563-3.215-10.6-.398s-3.215 7.563-.398 10.6c6.032 6.503 14.572 9.801 25.383 9.801 41.247 0 115.579-50.263 184.968-125.071 41.378-44.611 75.458-91.879 95.962-133.097 15.34-30.835 29.691-71.833 10.955-92.032z"/><path d="m414.235 425.649c-3.039-2.817-7.784-2.638-10.6.398-3.078 3.319-7.918 5.002-14.385 5.002-17.119 0-43.343-11.393-73.84-32.079-32.332-21.932-66.957-52.428-100.13-88.193-87.457-94.29-126.54-183.571-106.917-204.726 2.816-3.037 2.639-7.782-.398-10.599-3.039-2.819-7.782-2.639-10.6.398-18.736 20.2-4.385 61.197 10.955 92.032 20.504 41.218 54.584 88.485 95.962 133.097 69.389 74.809 143.721 125.071 184.968 125.071 10.811 0 19.351-3.298 25.383-9.801 2.817-3.037 2.639-7.783-.398-10.6z"/></g><g fill="#ea5b70"><circle cx="102.865" cy="100.951" r="35"/><circle cx="197.271" cy="407.549" r="35"/><circle cx="450.438" cy="245.383" r="25"/></g><g fill="#313d40"><path d="m193.551 193.906c-4.143 0-7.5 3.357-7.5 7.5v12c0 4.143 3.357 7.5 7.5 7.5s7.5-3.357 7.5-7.5v-12c0-4.143-3.358-7.5-7.5-7.5z"/><path d="m318.448 193.906c-4.143 0-7.5 3.357-7.5 7.5v12c0 4.143 3.357 7.5 7.5 7.5s7.5-3.357 7.5-7.5v-12c0-4.143-3.357-7.5-7.5-7.5z"/><path d="m277.391 207.394c-3.122-2.722-7.861-2.396-10.581.728-2.729 3.132-6.669 4.928-10.81 4.928s-8.08-1.796-10.81-4.928c-2.721-3.123-7.459-3.448-10.581-.728-3.123 2.721-3.449 7.459-.728 10.581 5.578 6.402 13.641 10.074 22.118 10.074s16.54-3.672 22.118-10.074c2.723-3.122 2.397-7.86-.726-10.581z"/></g></g></svg>