<svg height="512pt" viewBox="0 0 512 512.00002" width="512pt" xmlns="http://www.w3.org/2000/svg"><path d="m35.308594 211.863281h441.382812v263.589844h-441.382812zm0 0" fill="#a59078"/><path d="m35.308594 211.863281h441.382812v263.589844h-441.382812zm0 0" fill="#d1d4d1"/><path d="m88.277344 282.484375h158.894531c14.625 0 26.484375 11.855469 26.484375 26.480469v114.757812c0 14.628906-11.859375 26.484375-26.484375 26.484375h-158.894531c-14.628906 0-26.484375-11.855469-26.484375-26.484375v-114.757812c0-14.625 11.855469-26.480469 26.484375-26.480469zm0 0" fill="#bdc3c7"/><path d="m88.277344 300.136719h158.894531c4.875 0 8.828125 3.953125 8.828125 8.828125v114.757812c0 4.875-3.953125 8.828125-8.828125 8.828125h-158.894531c-4.875 0-8.828125-3.953125-8.828125-8.828125v-114.757812c0-4.875 3.953125-8.828125 8.828125-8.828125zm0 0" fill="#90bae1"/><path d="m317.792969 300.136719h105.929687c4.875 0 8.828125 3.953125 8.828125 8.828125v158.898437h-123.585937v-158.898437c0-4.875 3.953125-8.828125 8.828125-8.828125zm0 0" fill="#c03a2b"/><path d="m406.070312 335.449219v52.964843c0 4.875-3.953124 8.828126-8.828124 8.828126h-52.964844c-4.875 0-8.828125-3.953126-8.828125-8.828126v-52.964843c0-4.875 3.953125-8.828125 8.828125-8.828125h52.964844c4.875 0 8.828124 3.953125 8.828124 8.828125zm0 0" fill="#b0d3f0"/><path d="m404.304688 330.152344c-18.363282 7.238281-54.820313 26.480468-59.5 67.089844h-.527344c-4.871094-.015626-8.816406-3.957032-8.828125-8.828126v-52.964843c.011719-4.871094 3.957031-8.8125 8.828125-8.828125h52.964844c2.777343 0 5.394531 1.304687 7.0625 3.53125zm0 0" fill="#90bae1"/><path d="m353.101562 441.378906h-8.824218c-4.875 0-8.828125-3.953125-8.828125-8.828125s3.953125-8.828125 8.828125-8.828125h8.824218c4.878907 0 8.828126 3.953125 8.828126 8.828125s-3.949219 8.828125-8.828126 8.828125zm0 0" fill="#802f34"/><g fill="#fff"><path d="m120.761719 388.589844-35.3125 32.75c-1.625 1.527344-3.769531 2.382812-6 2.382812v-20.832031l29.308593-27.277344c3.582032-3.316406 9.175782-3.097656 12.488282.484375 3.316406 3.585938 3.097656 9.175782-.484375 12.492188zm0 0"/><path d="m211.863281 300.136719c.007813 2.453125-1.019531 4.789062-2.824219 6.445312l-61.792968 57.378907c-2.304688 2.144531-5.574219 2.898437-8.585938 1.976562-3.007812-.921875-5.292968-3.378906-6-6.445312-.707031-3.066407.277344-6.273438 2.578125-8.417969l54.820313-50.9375zm0 0"/><path d="m214.511719 368.375-69.121094 64.175781h-21.804687c-.007813-2.449219 1.019531-4.789062 2.824218-6.441406l76.007813-70.621094c2.296875-2.195312 5.59375-2.988281 8.632812-2.078125 3.042969.910156 5.363281 3.382813 6.078125 6.476563.714844 3.097656-.285156 6.335937-2.617187 8.488281zm0 0"/><path d="m256 308.964844v20.832031l-12.976562 12.09375c-1.71875 1.605469-4.007813 2.460937-6.359376 2.378906-2.351562-.082031-4.574218-1.097656-6.175781-2.820312-1.582031-1.71875-2.417969-3.996094-2.316406-6.332031.097656-2.335938 1.125-4.535157 2.847656-6.113282l18.976563-17.65625c1.625-1.527344 3.773437-2.378906 6.003906-2.382812zm0 0"/></g><path d="m476.691406 141.242188h-441.382812c-7.023438-.011719-13.765625 2.777343-18.734375 7.746093s-7.757813 11.710938-7.746094 18.734375v60.292969c-.292969 18.558594 13.445313 34.355469 31.867187 36.636719 9.914063.976562 19.78125-2.285156 27.164063-8.976563 7.382813-6.695312 11.589844-16.195312 11.589844-26.160156 0 19.503906 15.808593 35.3125 35.308593 35.3125 19.503907 0 35.3125-15.808594 35.3125-35.3125 0 19.503906 15.808594 35.3125 35.308594 35.3125s35.3125-15.808594 35.3125-35.3125c0 19.503906 15.808594 35.3125 35.308594 35.3125s35.308594-15.808594 35.308594-35.3125c0 19.503906 15.8125 35.3125 35.3125 35.3125s35.308594-15.808594 35.308594-35.3125c0 19.503906 15.808593 35.3125 35.3125 35.3125 19.5 0 35.308593-15.808594 35.308593-35.3125 0 9.964844 4.207031 19.464844 11.589844 26.160156 7.382813 6.691407 17.25 9.953125 27.164063 8.976563 18.421874-2.28125 32.160156-18.078125 31.867187-36.636719v-60.292969c.011719-7.023437-2.777344-13.765625-7.746094-18.734375s-11.710937-7.757812-18.734375-7.746093zm0 0" fill="#c03a2b"/><path d="m476.691406 141.242188h-441.382812c-7.023438-.011719-13.765625 2.777343-18.734375 7.746093s-7.757813 11.710938-7.746094 18.734375v26.484375h494.34375v-26.484375c.011719-7.023437-2.777344-13.765625-7.746094-18.734375s-11.710937-7.757812-18.734375-7.746093zm0 0" fill="#e64c3c"/><path d="m256 0c-39.292969-.0117188-74.71875 23.648438-89.761719 59.949219-15.039062 36.296875-6.730469 78.082031 21.050781 105.863281 27.785157 27.785156 69.566407 36.09375 105.867188 21.050781 36.296875-15.039062 59.957031-50.46875 59.945312-89.761719.015626-25.757812-10.210937-50.464843-28.421874-68.675781-18.214844-18.214843-42.921876-28.441406-68.679688-28.425781zm0 123.585938c-14.625 0-26.484375-11.855469-26.484375-26.484376 0-14.625 11.859375-26.480468 26.484375-26.480468s26.484375 11.855468 26.484375 26.480468c-.042969 14.609376-11.875 26.441407-26.484375 26.484376zm0 0" fill="#f3d55b"/><path d="m353.101562 97.101562c-17.652343 0-17.652343 8.828126-35.308593 8.828126s-17.65625-8.828126-35.308594-8.828126c0-14.625-11.859375-26.480468-26.484375-26.480468s-26.484375 11.855468-26.484375 26.480468c-17.652344 0-17.652344 8.828126-35.308594 8.828126s-17.65625-8.828126-35.308593-8.828126c0-53.625 43.472656-97.101562 97.101562-97.101562s97.101562 43.476562 97.101562 97.101562zm0 0" fill="#ff5364"/><path d="m203.035156 70.621094c-3.570312 0-6.789062-2.152344-8.15625-5.449219-1.363281-3.300781-.609375-7.09375 1.914063-9.621094l8.828125-8.828125c2.214844-2.292968 5.5-3.214844 8.585937-2.40625 3.085938.808594 5.496094 3.21875 6.304688 6.304688.804687 3.085937-.113281 6.371094-2.410157 8.585937l-8.824218 8.828125c-1.65625 1.65625-3.902344 2.589844-6.242188 2.585938zm0 0" fill="#fff"/><path d="m264.828125 44.136719h-17.65625c-4.875 0-8.828125-3.949219-8.828125-8.828125 0-4.875 3.953125-8.824219 8.828125-8.824219h17.65625c4.875 0 8.828125 3.949219 8.828125 8.824219 0 4.878906-3.953125 8.828125-8.828125 8.828125zm0 0" fill="#fff"/><path d="m308.964844 70.621094c-2.339844.003906-4.585938-.929688-6.242188-2.585938l-8.824218-8.828125c-3.347657-3.464843-3.300782-8.96875.105468-12.375s8.910156-3.453125 12.375-.109375l8.828125 8.828125c2.523438 2.527344 3.277344 6.320313 1.914063 9.621094-1.367188 3.296875-4.585938 5.449219-8.15625 5.449219zm0 0" fill="#fff"/><path d="m17.65625 467.863281h476.6875c9.75 0 17.65625 7.902344 17.65625 17.652344v17.65625c0 4.875-3.953125 8.828125-8.828125 8.828125h-494.34375c-4.875 0-8.828125-3.953125-8.828125-8.828125v-17.65625c0-9.75 7.90625-17.652344 17.65625-17.652344zm0 0" fill="#24ae5f"/><path d="m44.136719 467.863281h423.726562c9.75 0 17.652344 7.902344 17.652344 17.652344v17.65625c0 4.875-3.949219 8.828125-8.824219 8.828125h-441.382812c-4.875 0-8.824219-3.953125-8.824219-8.828125v-17.65625c0-9.75 7.902344-17.652344 17.652344-17.652344zm0 0" fill="#4fba6f"/></svg>