<svg height="512pt" viewBox="0 0 512 512" width="512pt" xmlns="http://www.w3.org/2000/svg"><path d="m497 0h-91c-41.472656 0-75 33.597656-75 75v15l15 30 45-30h45c41.398438 0 76-33.601562 76-75 0-8.402344-6.597656-15-15-15zm0 0" fill="#f4d7af"/><path d="m512 135v106l-31 30h-451l-30-30v-106c0-8.402344 6.597656-15 15-15h482c8.402344 0 15 6.597656 15 15zm0 0" fill="#ffa8b4"/><path d="m512 135v106l-31 30h-225v-151h241c8.402344 0 15 6.597656 15 15zm0 0" fill="#ff8597"/><path d="m481 256v105l-210 151h-30l-30-15h-90l-30 15h-46c-8.402344 0-15-6.601562-15-15v-241zm0 0" fill="#ffb751"/><path d="m481 256v105l-210 151h-15v-256zm0 0" fill="#ff9b00"/><path d="m481 497v-136h-195c-8.289062 0-15 6.710938-15 15v136h195c8.289062 0 15-6.710938 15-15zm0 0" fill="#714c2f"/><path d="m376 180h-30c-8.285156 0-15-6.714844-15-15v-75h60v75c0 8.285156-6.714844 15-15 15zm0 0" fill="#714c2f"/><path d="m0 241v45c0 24.898438 20.097656 45 45 45 11.699219 0 22.898438-4.5 31-11.699219 8.101562 7.199219 18.300781 11.699219 30 11.699219s21.898438-4.5 30-11.699219c8.101562 7.199219 18.300781 11.699219 30 11.699219s21.898438-4.5 30-11.699219c8.101562 7.199219 18.300781 11.699219 30 11.699219s21.898438-4.5 30-11.699219c8.101562 7.199219 18.300781 11.699219 30 11.699219s21.898438-4.5 30-11.699219c8.101562 7.199219 18.300781 11.699219 30 11.699219s21.898438-4.5 30-11.699219c8.101562 7.199219 18.300781 11.699219 30 11.699219s21.898438-4.5 30-11.699219c8.101562 7.199219 18.300781 11.699219 30 11.699219 24.902344 0 46-20.101562 46-45v-45zm0 0" fill="#ff637b"/><path d="m512 241v45c0 24.898438-21.097656 45-46 45-11.699219 0-21.898438-4.5-30-11.699219-8.101562 7.199219-18.300781 11.699219-30 11.699219s-21.898438-4.5-30-11.699219c-8.101562 7.199219-18.300781 11.699219-30 11.699219s-21.898438-4.5-30-11.699219c-8.101562 7.199219-18.300781 11.699219-30 11.699219s-21.898438-4.5-30-11.699219v-78.300781zm0 0" fill="#e63950"/><path d="m241 376c0-8.289062-6.710938-15-15-15h-120c-8.289062 0-15 6.710938-15 15v136h150v-61l-30-15 30-15zm0 0" fill="#895d3c"/><path d="m196 421c-8.289062 0-15 6.710938-15 15s6.710938 15 15 15h45v-30zm0 0" fill="#faecd8"/><path d="m301 391h150v91h-150zm0 0" fill="#f4d7af"/><path d="m256 105c0 49.5-40.5 90-90 90s-90-40.5-90-90h60c0 16.5 13.5 30 30 30s30-13.5 30-30zm0 0" fill="#ca6d36"/><path d="m256 105c0 49.5-40.5 90-90 90v-60c16.5 0 30-13.5 30-30zm0 0" fill="#a05528"/><path d="m256 105c0 16.5-13.5 30-30 30s-30-13.5-30-30-13.5-30-30-30-30 13.5-30 30-13.5 30-30 30-30-13.5-30-30c0-49.5 40.5-90 90-90s90 40.5 90 90zm0 0" fill="#ff637b"/><path d="m256 105c0 16.5-13.5 30-30 30s-30-13.5-30-30-13.5-30-30-30v-60c49.5 0 90 40.5 90 90zm0 0" fill="#e63950"/></svg>