<?xml version="1.0" encoding="iso-8859-1"?>
<!-- Generator: Adobe Illustrator 19.0.0, SVG Export Plug-In . SVG Version: 6.00 Build 0)  -->
<svg version="1.1" id="Capa_1" xmlns="http://www.w3.org/2000/svg" xmlns:xlink="http://www.w3.org/1999/xlink" x="0px" y="0px"
	 viewBox="0 0 512 512" style="enable-background:new 0 0 512 512;" xml:space="preserve">
<path style="fill:#716499;" d="M488.18,51.854v232.805c0,9.599-13.097,12.42-17.042,3.658l-5.023-11.113l-6.732-14.92l-51.63-3.807
	l-13.028-0.963c-2.993-0.218-5.539-2.248-6.422-5.103l-5.31-17.145c-2.076-6.686-11.491-6.869-13.819-0.264l-27.994,79.337
	c-3.119,8.853-16.033,7.5-17.248-1.801l-14.198-108.409c-0.952-7.259-10.815-8.739-13.842-2.064l-22.959,50.563
	c-2.018,4.438-7.225,6.445-11.686,4.484l-6.239-2.729l-26.182-11.434l-41.343,9.61c-3.624,0.837-6.342,3.83-6.824,7.523l-0.31,2.351
	l-23.59,179.168c-1.273,9.622-14.817,10.585-17.432,1.239l-25.781-92.124L79.567,229.302l-39.668,59.727l-2.259,3.395
	c-4.713,7.099-15.746,4.174-16.319-4.323l-8.246-120.6L5.162,51.854H488.18z"/>
<path style="fill:#503D7F;" d="M488.18,51.854v128.777l-22.065,96.574l-6.732-14.92l-51.63-3.807l-5.287-120.99l-3.956-2.592
	l-14.037,46.297c-3.28,10.815-13.074,18.085-24.358,18.085c-12.03,0-22.26-8.188-24.886-19.92l-0.264-1.181l-21.962-8.154
	l-6.537-51.94l-5.344,18.498c-3.177,11.009-13.005,18.406-24.462,18.406c-9.026,0-17.099-4.679-21.652-12.007v111.402
	l-26.182-11.434l-41.343,9.61c-3.624,0.837-6.342,3.83-6.824,7.523l-0.31,2.351l-10.104-156.805l-10.688,4.117v145.624
	c0,12.328-8.796,22.879-20.941,25.07l-8.028,1.456l-17.042,68.821L79.567,229.302l-39.668,59.727L13.074,167.5L5.162,51.854H488.18z
	"/>
<path style="fill:#A19CAD;" d="M0.205,29.387l74.949,339.541c1.886,8.543,14.01,8.698,16.113,0.205l25.304-102.183l18.989-3.438
	c3.938-0.713,6.801-4.141,6.801-8.143V105.412c0-4.498,2.768-8.533,6.964-10.153l22.755-8.783
	c6.854-2.646,14.307,2.121,14.779,9.453l14.757,229.136c0.537,8.337,11.684,10.717,15.579,3.326l19.659-37.305
	c0.627-1.189,0.954-2.514,0.954-3.858V120.813c0-4.669,2.979-8.818,7.403-10.311l5.695-1.922c6.057-2.044,12.563,1.548,14.06,7.762
	l3.639,15.103c1.989,8.257,13.639,8.517,15.995,0.358l6.775-23.456c0.822-2.847,2.769-5.235,5.392-6.613l9.531-5.009
	c6.725-3.535,14.911,0.735,15.86,8.274l6.614,52.529l20.939,7.77l2.305,10.306c1.857,8.302,13.527,8.735,15.995,0.595l16.486-54.379
	c2.108-6.952,10.305-9.927,16.38-5.944l13.727,8.998c2.928,1.919,4.754,5.129,4.906,8.627l7.241,165.825
	c0.421,9.636,14.187,10.885,16.335,1.482L493.09,81.89L512,70.059V27.542c0-4.73-3.834-8.564-8.564-8.564H8.567
	C3.094,18.978-0.975,24.042,0.205,29.387z"/>
<g>
	<path style="fill:#50B8FF;" d="M462.829,339.315c-4.285,0-7.758-3.473-7.758-7.758v-0.947c0-4.285,3.473-7.758,7.758-7.758
		s7.758,3.473,7.758,7.758v0.947C470.587,335.842,467.114,339.315,462.829,339.315z"/>
	<path style="fill:#50B8FF;" d="M398.199,381.306c-4.285,0-7.758-3.473-7.758-7.758v-0.946c0-4.285,3.473-7.758,7.758-7.758
		s7.758,3.473,7.758,7.758v0.946C405.957,377.833,402.484,381.306,398.199,381.306z"/>
	<path style="fill:#50B8FF;" d="M162.002,493.022c-4.285,0-7.758-3.473-7.758-7.758v-0.947c0-4.285,3.473-7.758,7.758-7.758
		c4.285,0,7.758,3.473,7.758,7.758v0.947C169.76,489.549,166.287,493.022,162.002,493.022z"/>
	<path style="fill:#50B8FF;" d="M96.423,421.637c-4.285,0-7.758-3.473-7.758-7.758v-0.945c0-4.285,3.473-7.758,7.758-7.758
		c4.285,0,7.758,3.473,7.758,7.758v0.945C104.181,418.164,100.708,421.637,96.423,421.637z"/>
	<path style="fill:#50B8FF;" d="M48.369,396.85c-4.285,0-7.758-3.473-7.758-7.758v-0.945c0-4.285,3.473-7.758,7.758-7.758
		s7.758,3.473,7.758,7.758v0.945C56.127,393.377,52.654,396.85,48.369,396.85z"/>
</g>
<path style="fill:#716499;" d="M106.437,237.534c-4.285,0-7.758-3.473-7.758-7.758v-0.946c0-4.285,3.473-7.758,7.758-7.758
	s7.758,3.473,7.758,7.758v0.946C114.195,234.061,110.722,237.534,106.437,237.534z"/>
<path style="fill:#503D7F;" d="M343.718,227.127c-4.285,0-7.758-3.473-7.758-7.758v-0.947c0-4.285,3.473-7.758,7.758-7.758
	s7.758,3.473,7.758,7.758v0.947C351.476,223.654,348.003,227.127,343.718,227.127z"/>
<g>
	<path style="fill:#716499;" d="M450.793,106.178c-4.285,0-7.758-3.473-7.758-7.758v-0.946c0-4.285,3.473-7.758,7.758-7.758
		s7.758,3.473,7.758,7.758v0.946C458.551,102.705,455.078,106.178,450.793,106.178z"/>
	<path style="fill:#716499;" d="M429.428,78.289c-4.285,0-7.758-3.473-7.758-7.758v-0.945c0-4.285,3.473-7.758,7.758-7.758
		s7.758,3.473,7.758,7.758v0.945C437.186,74.817,433.713,78.289,429.428,78.289z"/>
	<path style="fill:#716499;" d="M79.519,204.414c-0.413,0-0.828-0.012-1.247-0.035c-9.684-0.55-17.354-7.331-19.087-16.875
		l-7.858-43.311c-0.765-4.215,2.033-8.253,6.249-9.019c4.208-0.767,8.254,2.032,9.019,6.249l7.858,43.311
		c0.642,3.545,3.499,4.085,4.697,4.153c1.191,0.07,4.098-0.146,5.138-3.596L96.3,145.423c1.235-4.102,5.563-6.43,9.666-5.189
		c4.102,1.235,6.426,5.564,5.189,9.666l-12.013,39.868C96.466,198.654,88.671,204.414,79.519,204.414z"/>
	<path style="fill:#716499;" d="M361.998,83.8c-7.723,0-14.852-3.883-19.071-10.552l-5.765-9.112
		c-2.291-3.62-1.213-8.413,2.408-10.704c3.62-2.29,8.411-1.214,10.704,2.408l5.765,9.112c2.246,3.55,5.861,3.403,6.914,3.272
		c1.055-0.13,4.596-0.865,5.911-4.855l3.882-11.776c1.341-4.069,5.729-6.28,9.796-4.94c4.07,1.341,6.281,5.728,4.94,9.796
		L383.6,68.225c-2.773,8.413-9.956,14.312-18.746,15.397C363.897,83.741,362.942,83.8,361.998,83.8z"/>
</g>
<g>
	<path style="fill:#50B8FF;" d="M451.205,386.577c0,9.277-7.521,16.798-16.798,16.798s-16.798-7.521-16.798-16.798
		c0-6.178,7.449-22.55,12.426-32.799c1.773-3.652,6.969-3.652,8.743,0C443.755,364.027,451.205,380.399,451.205,386.577z"/>
	<path style="fill:#50B8FF;" d="M234.807,409.016c0,9.277-7.521,16.798-16.798,16.798s-16.798-7.521-16.798-16.798
		c0-6.178,7.449-22.55,12.426-32.799c1.773-3.652,6.969-3.652,8.743,0C227.357,386.466,234.807,402.838,234.807,409.016z"/>
</g>
<g>
</g>
<g>
</g>
<g>
</g>
<g>
</g>
<g>
</g>
<g>
</g>
<g>
</g>
<g>
</g>
<g>
</g>
<g>
</g>
<g>
</g>
<g>
</g>
<g>
</g>
<g>
</g>
<g>
</g>
</svg>
