<svg height="512" viewBox="0 0 128 128" width="512" xmlns="http://www.w3.org/2000/svg"><g><path d="m84.984 98.28-47.799-27.48a6.555 6.555 0 0 0 -6.345-.11 6.557 6.557 0 1 1 -3.553-12.328 6.557 6.557 0 1 1 12.442-3.13 6.551 6.551 0 0 0 3.287 5.427l47.8 27.485a6.555 6.555 0 0 0 6.345.11 6.557 6.557 0 1 1 3.553 12.328 6.557 6.557 0 1 1 -12.442 3.13 6.551 6.551 0 0 0 -3.288-5.432z" fill="#dbdae5"/><path d="m43.016 98.28 47.799-27.48a6.555 6.555 0 0 1 6.345-.11 6.557 6.557 0 1 0 3.553-12.328 6.557 6.557 0 1 0 -12.442-3.13 6.551 6.551 0 0 1 -3.287 5.427l-47.8 27.485a6.555 6.555 0 0 1 -6.345.11 6.557 6.557 0 1 0 -3.553 12.328 6.557 6.557 0 1 0 12.442 3.13 6.551 6.551 0 0 1 3.288-5.432z" fill="#ececf1"/><path d="m91.145 41.72c0-13.11-12.153-23.738-27.145-23.738s-27.145 10.628-27.145 23.738a22.541 22.541 0 0 0 9.251 17.847 13.208 13.208 0 0 1 5.12 10.492 4.382 4.382 0 0 0 3.84 4.421 4.259 4.259 0 0 0 4.676-4.238 4.258 4.258 0 1 0 8.516 0 4.259 4.259 0 0 0 4.676 4.238 4.382 4.382 0 0 0 3.84-4.421 13.208 13.208 0 0 1 5.12-10.492 22.541 22.541 0 0 0 9.251-17.847z" fill="#ececf1"/><path d="m64 22.982v47.26h7.774v-.183a18.307 18.307 0 0 1 7.077-14.459 17.636 17.636 0 0 0 7.294-13.879c0-10.333-9.934-18.739-22.145-18.739z" fill="#dbdae5"/><g fill="#534340"><circle cx="53.632" cy="42.596" r="8.075"/><circle cx="74.368" cy="42.596" r="8.075"/></g></g></svg>