<?xml version="1.0" encoding="iso-8859-1"?>
<!-- Generator: Adobe Illustrator 19.0.0, SVG Export Plug-In . SVG Version: 6.00 Build 0)  -->
<svg version="1.1" id="Capa_1" xmlns="http://www.w3.org/2000/svg" xmlns:xlink="http://www.w3.org/1999/xlink" x="0px" y="0px"
	 viewBox="0 0 512.404 512.404" style="enable-background:new 0 0 512.404 512.404;" xml:space="preserve">
<path style="fill:#344A5E;" d="M256.42,112.202L256.42,112.202c6.4,0,10.667-5.333,10.667-10.667V45.002h12.8
	c6.4,0,10.667-5.333,10.667-10.667l0,0c0-6.4-5.333-10.667-10.667-10.667h-12.8v-12.8c0-6.4-5.333-10.667-10.667-10.667l0,0
	c-6.4,0-10.667,5.333-10.667,10.667v12.8h-12.8c-6.4,0-10.667,5.333-10.667,10.667l0,0c0,6.4,5.333,10.667,10.667,10.667h12.8
	v55.467C245.754,106.869,250.02,112.202,256.42,112.202z"/>
<polygon style="fill:#E8EAE9;" points="481.487,362.869 481.487,512.202 31.354,512.202 31.354,362.869 256.42,276.469 "/>
<path style="fill:#F3705A;" d="M500.687,350.069l-236.8-90.667c-4.267-2.133-9.6-2.133-13.867,0L12.154,350.069
	c-9.6,3.2-14.933,14.933-10.667,24.533c3.2,9.6,14.933,14.933,24.533,10.667l230.4-88.533l230.4,88.533
	c9.6,3.2,20.267-1.067,24.533-10.667l0,0C514.554,363.935,510.287,353.269,500.687,350.069z"/>
<path style="fill:#F3F3F3;" d="M375.887,234.869v277.333H136.954V234.869c46.933-46.933,72.533-72.533,119.467-119.467
	L375.887,234.869z"/>
<path style="fill:#F3705A;" d="M403.62,225.269l-134.4-134.4c-7.467-7.467-19.2-7.467-26.667,0l-133.333,134.4
	c-7.467,7.467-7.467,19.2,0,26.667c7.467,7.467,19.2,7.467,26.667,0l120.533-121.6l120.533,120.533c7.467,7.467,19.2,7.467,26.667,0
	C411.087,244.469,411.087,232.735,403.62,225.269z"/>
<path style="fill:#415A6B;" d="M256.42,375.669c-29.867,0-54.4,24.533-54.4,54.4v82.133h108.8v-82.133
	C310.82,400.202,286.287,375.669,256.42,375.669z"/>
<circle style="fill:#344A5E;" cx="256.42" cy="256.202" r="59.733"/>
<circle style="fill:#8AD7F8;" cx="256.42" cy="256.202" r="42.667"/>
<g>
</g>
<g>
</g>
<g>
</g>
<g>
</g>
<g>
</g>
<g>
</g>
<g>
</g>
<g>
</g>
<g>
</g>
<g>
</g>
<g>
</g>
<g>
</g>
<g>
</g>
<g>
</g>
<g>
</g>
</svg>
