<?xml version="1.0"?>
<svg xmlns="http://www.w3.org/2000/svg" viewBox="0 0 64 64" width="512" height="512"><g id="flat"><polygon points="38 38 38 33 36 32 33 36 20 44 19.514 44.086 25 45 38 38" style="fill:#e8594a"/><path d="M27.528,54A18.946,18.946,0,0,0,36,52a18.946,18.946,0,0,1,8.472-2H59.4L59,49a28.1,28.1,0,0,0-7.148-12.148L50,35l-6,6-6-3L25,45l-5.486-.914L6.568,46.37A4.319,4.319,0,0,0,3,50.623v.334L17,54Z" style="fill:#84bfb4"/><path d="M59.4,50H44.472A18.946,18.946,0,0,0,36,52a18.946,18.946,0,0,1-8.472,2H17L3,50.957a4.318,4.318,0,0,0,2.866,4.067L17,59H50l11-5Z" style="fill:#d6d9db"/><polygon points="27 45.917 22.842 40.399 24.5 39.25 28.822 44.765 27 45.917" style="fill:#6dab9f"/><polygon points="30.333 44.083 25.788 38.44 27.622 37.19 32 43 30.333 44.083" style="fill:#6dab9f"/><polygon points="33.495 42.217 29 36.417 30.667 35.25 35.083 41.083 33.495 42.217" style="fill:#6dab9f"/><path d="M22.891,51.964,21.943,50.2l7.583-4.083a.986.986,0,0,1,.79-.067l2.576.858L39.5,43.132l.992,1.736-7,4a1,1,0,0,1-.812.08l-2.59-.863Z" style="fill:#e8594a"/><path d="M49.9,44.556l6.359-1.59.186-.05c-.348-.615-.712-1.221-1.105-1.809l-5.924,1.509c-3.87.967-8.939,6.476-9.122,6.677l-1.626,1.626a18.937,18.937,0,0,1,3.587-.788C43.932,48.4,47.459,45.166,49.9,44.556Z" style="fill:#6dab9f"/><polygon points="17.183 56.577 18.893 59 21.342 59 18.817 55.423 17.183 56.577" style="fill:#b6b8ba"/><polygon points="23.186 56.58 24.907 59 27.362 59 24.814 55.42 23.186 56.58" style="fill:#b6b8ba"/><polygon points="29.178 56.569 30.861 59 33.294 59 30.822 55.431 29.178 56.569" style="fill:#b6b8ba"/><polygon points="34.203 55.604 36.775 59 39.283 59 35.797 54.396 34.203 55.604" style="fill:#b6b8ba"/><polygon points="40.146 54.52 42.87 59 45.211 59 41.854 53.48 40.146 54.52" style="fill:#b6b8ba"/><polygon points="46.143 54.515 48.834 59 50 59 50.916 58.583 47.857 53.485 46.143 54.515" style="fill:#b6b8ba"/><polygon points="52.812 52.416 51.187 53.584 53.829 57.259 55.687 56.415 52.812 52.416" style="fill:#b6b8ba"/><polygon points="26 26 26 31 28 32 31 28 44 20 44.486 19.914 39 19 26 26" style="fill:#e8594a"/><path d="M36.472,10A18.946,18.946,0,0,0,28,12a18.946,18.946,0,0,1-8.472,2H4.6L5,15a28.1,28.1,0,0,0,7.148,12.148L14,29l6-6,6,3,13-7,5.486.914L57.432,17.63A4.319,4.319,0,0,0,61,13.377v-.334L47,10Z" style="fill:#84bfb4"/><path d="M4.6,14H19.528A18.946,18.946,0,0,0,28,12a18.946,18.946,0,0,1,8.472-2H47l14,3.043a4.318,4.318,0,0,0-2.866-4.067L47,5H14L3,10Z" style="fill:#d6d9db"/><polygon points="37 18.083 41.158 23.601 39.5 24.75 35.178 19.235 37 18.083" style="fill:#6dab9f"/><polygon points="33.667 19.917 38.212 25.56 36.378 26.81 32 21 33.667 19.917" style="fill:#6dab9f"/><polygon points="30.505 21.783 35 27.583 33.333 28.75 28.917 22.917 30.505 21.783" style="fill:#6dab9f"/><path d="M41.109,12.036l.948,1.762-7.583,4.083a.986.986,0,0,1-.79.067l-2.576-.858L24.5,20.868,23.5,19.132l7-4a1,1,0,0,1,.812-.08l2.59.863Z" style="fill:#e8594a"/><path d="M14.1,19.444l-6.359,1.59-.186.05c.348.615.712,1.221,1.1,1.809l5.924-1.509c3.87-.967,8.939-6.476,9.122-6.677l1.626-1.626a18.937,18.937,0,0,1-3.587.788C20.068,15.6,16.541,18.834,14.1,19.444Z" style="fill:#6dab9f"/><polygon points="46.817 7.423 45.107 5 42.658 5 45.183 8.577 46.817 7.423" style="fill:#b6b8ba"/><polygon points="40.814 7.42 39.093 5 36.638 5 39.186 8.58 40.814 7.42" style="fill:#b6b8ba"/><polygon points="34.822 7.431 33.139 5 30.706 5 33.178 8.569 34.822 7.431" style="fill:#b6b8ba"/><polygon points="29.797 8.396 27.225 5 24.717 5 28.203 9.604 29.797 8.396" style="fill:#b6b8ba"/><polygon points="23.854 9.48 21.13 5 18.789 5 22.146 10.52 23.854 9.48" style="fill:#b6b8ba"/><polygon points="17.857 9.485 15.166 5 14 5 13.084 5.417 16.143 10.515 17.857 9.485" style="fill:#b6b8ba"/><polygon points="11.187 11.584 12.812 10.416 10.171 6.741 8.313 7.585 11.187 11.584" style="fill:#b6b8ba"/></g></svg>
