<?xml version="1.0" encoding="iso-8859-1"?>
<!-- Generator: Adobe Illustrator 19.0.0, SVG Export Plug-In . SVG Version: 6.00 Build 0)  -->
<svg version="1.1" id="Capa_1" xmlns="http://www.w3.org/2000/svg" xmlns:xlink="http://www.w3.org/1999/xlink" x="0px" y="0px"
	 viewBox="0 0 468.293 468.293" style="enable-background:new 0 0 468.293 468.293;" xml:space="preserve">
<path style="fill:#E1E6E9;" d="M253.27,68.571L132.433,189.408L330.716,392.39c5.347,5.474,12.676,8.56,20.328,8.56h113.392
	c0,0,21.546-65.49-37.216-75.347c0,0-56.803-1.412-58.762-43.34V165.2c0-2.606-2.29-4.586-4.862-4.167
	c-18.064,2.938-81.393,5.938-103.223-90.322C259.633,67.444,255.639,66.202,253.27,68.571z"/>
<g>
	<path style="fill:#44C4A1;" d="M152.999,168.842l194.999,194.999c5.329,5.329,12.557,8.323,20.094,8.323h100.133l-3.789,28.786
		H351.044c-7.652,0-14.981-3.086-20.328-8.56L132.433,189.408L152.999,168.842z"/>
	<path style="fill:#44C4A1;" d="M344.964,192.348c-0.214,0-0.428-0.015-0.643-0.054c-90.66-14.943-106.368-77.767-106.995-80.43
		c-0.49-2.104,0.819-4.208,2.915-4.706c2.127-0.474,4.216,0.803,4.713,2.907c0.589,2.464,15.364,60.445,100.637,74.5
		c2.135,0.352,3.581,2.364,3.229,4.499C348.507,190.986,346.847,192.348,344.964,192.348z"/>
	<path style="fill:#44C4A1;" d="M304.803,296.084c-2.165,0-3.917-1.752-3.917-3.917v-80.231c0-2.165,1.752-3.917,3.917-3.917
		c2.165,0,3.917,1.752,3.917,3.917v80.231C308.72,294.332,306.968,296.084,304.803,296.084z"/>
</g>
<g>
	<circle style="fill:#64798A;" cx="335.173" cy="225.68" r="10.446"/>
	<circle style="fill:#64798A;" cx="336.484" cy="276.611" r="10.446"/>
	<rect x="335.173" y="221.783" style="fill:#64798A;" width="33.299" height="7.836"/>
	<circle style="fill:#64798A;" cx="335.485" cy="251.142" r="10.446"/>
	<rect x="335.485" y="247.259" style="fill:#64798A;" width="33.299" height="7.836"/>
	<rect x="333.206" y="272.671" style="fill:#64798A;" width="35.259" height="7.836"/>
</g>
<g>
	<path style="fill:#E56353;" d="M257.029,366.437H58.547c-4.331,0-7.835-3.504-7.835-7.835s3.504-7.835,7.835-7.835h198.481
		c4.331,0,7.835,3.504,7.835,7.835S261.359,366.437,257.029,366.437z"/>
	<path style="fill:#E56353;" d="M169.536,329.221H33.191c-4.331,0-7.835-3.504-7.835-7.835c0-4.331,3.504-7.835,7.835-7.835h136.345
		c4.331,0,7.835,3.504,7.835,7.835C177.371,325.717,173.867,329.221,169.536,329.221z"/>
	<path style="fill:#E56353;" d="M89.887,292.006H7.835c-4.331,0-7.835-3.504-7.835-7.835c0-4.331,3.504-7.835,7.835-7.835h82.052
		c4.331,0,7.835,3.504,7.835,7.835C97.722,288.501,94.218,292.006,89.887,292.006z"/>
</g>
<g>
</g>
<g>
</g>
<g>
</g>
<g>
</g>
<g>
</g>
<g>
</g>
<g>
</g>
<g>
</g>
<g>
</g>
<g>
</g>
<g>
</g>
<g>
</g>
<g>
</g>
<g>
</g>
<g>
</g>
</svg>
