<svg height="512" viewBox="0 0 512 512" width="512" xmlns="http://www.w3.org/2000/svg"><path d="m408 304h-8a112 112 0 0 1 -112-112v-104h-216v352h416v-56a80 80 0 0 0 -80-80z" fill="#fdb62f"/><path d="m208 448a128 128 0 0 0 -128-128h-8v128z" fill="#ec9e15"/><path d="m72 440h152v48h-136a16 16 0 0 1 -16-16z" fill="#d38e14"/><path d="m104 352h-32a8 8 0 0 1 0-16h32a8 8 0 0 1 0 16z" fill="#fdb62f"/><path d="m104 384h-32a8 8 0 0 1 0-16h32a8 8 0 0 1 0 16z" fill="#fdb62f"/><path d="m104 416h-32a8 8 0 0 1 0-16h32a8 8 0 0 1 0 16z" fill="#fdb62f"/><path d="m400 304c-2.674 0-5.292-.216-7.919-.4-.008.14-.081.258-.081.4a72.081 72.081 0 0 1 -72 72h-84.826a168.563 168.563 0 0 0 -55.037-70.906c-32.645-24.274-52.137-64.294-52.137-107.055v-110.039a8 8 0 0 0 -16 0v110.039c0 47.8 21.9 92.617 58.59 119.9a150.756 150.756 0 0 1 61.41 122.061 8 8 0 0 0 16 0 167.009 167.009 0 0 0 -7.083-48h79.083a88.1 88.1 0 0 0 88-88z" fill="#ec9e15"/><path d="m300.387 297.117a7.932 7.932 0 0 1 -4.117-1.148 88.416 88.416 0 0 1 -42.18-66.453l-2.442-23.875a8 8 0 1 1 15.915-1.625l2.437 23.875a72.358 72.358 0 0 0 34.516 54.375 8 8 0 0 1 -4.133 14.851z" fill="#ffc757"/><path d="m335.992 322a8.01 8.01 0 0 1 -3.57-.844l-8-4a8 8 0 0 1 7.156-14.312l8 4a8 8 0 0 1 -3.586 15.156z" fill="#ffc757"/><path d="m224 440 48 48h200a16 16 0 0 0 16-16v-32z" fill="#d38e14"/><path d="m64 24h240v64h-240z" fill="#8e7760"/><g fill="#74624f"><path d="m352 176a7.971 7.971 0 0 1 -5.656-2.344l-6.629-6.625a39.74 39.74 0 0 1 -11.715-28.289v-50.742a24.027 24.027 0 0 0 -24-24h-24a8 8 0 0 1 0-16h24a40.047 40.047 0 0 1 40 40v50.742a23.856 23.856 0 0 0 7.027 16.977l6.629 6.625a8 8 0 0 1 -5.656 13.656z"/><path d="m120 64h-24a8 8 0 0 1 0-16h24a8 8 0 0 1 0 16z"/><path d="m184 64h-32a8 8 0 0 1 0-16h32a8 8 0 0 1 0 16z"/><path d="m248 64h-32a8 8 0 0 1 0-16h32a8 8 0 0 1 0 16z"/></g><path d="m72 88h216v13.809h-216z" fill="#ec9e15"/></svg>