<svg id="Capa_1" enable-background="new 0 0 512 512" height="512" viewBox="0 0 512 512" width="512" xmlns="http://www.w3.org/2000/svg"><g><g><path d="m256 50.028c-4.143 0-7.5-3.357-7.5-7.5v-35.028c0-4.143 3.357-7.5 7.5-7.5s7.5 3.357 7.5 7.5v35.028c0 4.143-3.358 7.5-7.5 7.5z" fill="#454045"/></g><path d="m305.946 79.91h-99.892v-33.874c0-7.46 6.048-13.508 13.508-13.508h72.876c7.46 0 13.508 6.048 13.508 13.508z" fill="#544f57"/><path d="m148.353 427.134h215.294v-296.043h-215.294z" fill="#e4f6ff"/><path d="m346.719 131.091h16.928v296.044h-16.928z" fill="#d3effb"/><path d="m395.393 449.974-54.264 20h-186.572l-37.95-20 31.746-34.027h215.294z" fill="#544f57"/><path d="m363.647 415.947h-23.76l31.746 34.027h23.76z" fill="#454045"/><path d="m116.607 108.251 31.746-20h196.248l50.792 20-31.746 34.027h-215.294z" fill="#544f57"/><path d="m371.633 108.251-31.746 34.027h23.76l31.746-34.027z" fill="#454045"/><g><path d="m279.759 247.277h-47.52-2.355c-11.821 0-21.404 9.583-21.404 21.404v33.038c0 6.541 5.117 12.152 11.657 12.272 6.663.122 12.103-5.243 12.103-11.878v47.349c0 6.561 5.319 11.88 11.88 11.88 6.561 0 11.88-5.319 11.88-11.88 0 6.635 5.439 12 12.102 11.878 6.54-.119 11.658-5.73 11.658-12.272v-46.953c.001 6.635 5.441 11.998 12.104 11.876 6.54-.12 11.656-5.731 11.656-12.272v-33.038c0-11.821-9.583-21.404-21.404-21.404z" fill="#f4dd45"/><g fill="#ecbe6b"><path d="m282.115 247.276h-2.356-11.173c11.821 0 21.404 9.583 21.404 21.405v33.038c0 4.12-2.032 7.867-5.169 10.11 1.988 1.397 4.416 2.21 7.041 2.162 6.54-.12 11.656-5.731 11.656-12.272v-33.038c.002-11.821-9.582-21.405-21.403-21.405z"/><path d="m278.335 313.991c-.067.001-.133.001-.199 0-6.505-.115-11.904 4.953-11.904 11.459v23.618c0 4.12-2.032 7.867-5.169 10.11 2.202 1.548 4.945 2.379 7.898 2.116 6.187-.551 10.8-5.99 10.8-12.201v-35.226c-.469.067-.942.115-1.426.124z"/></g><g><path d="m232.24 304.612c-1.381 0-2.5-1.119-2.5-2.5v-21.478c0-1.381 1.119-2.5 2.5-2.5s2.5 1.119 2.5 2.5v21.478c0 1.381-1.119 2.5-2.5 2.5z" fill="#ecbe6b"/></g><g><path d="m279.759 304.612c-1.381 0-2.5-1.119-2.5-2.5v-21.478c0-1.381 1.119-2.5 2.5-2.5s2.5 1.119 2.5 2.5v21.478c0 1.381-1.119 2.5-2.5 2.5z" fill="#ecbe6b"/></g><g><path d="m256 351.961c-1.381 0-2.5-1.119-2.5-2.5v-38.629c0-1.381 1.119-2.5 2.5-2.5s2.5 1.119 2.5 2.5v38.629c0 1.381-1.12 2.5-2.5 2.5z" fill="#ecbe6b"/></g><circle cx="257.155" cy="227.799" fill="#ffe4c1" r="24.915"/><path d="m257.155 202.884c-2.7 0-5.297.435-7.732 1.229 9.974 3.254 17.183 12.625 17.183 23.686 0 11.06-7.209 20.432-17.183 23.686 2.435.795 5.032 1.23 7.732 1.23 13.76 0 24.915-11.155 24.915-24.916.001-13.76-11.155-24.915-24.915-24.915z" fill="#f1d0a5"/></g><g><g><g><path d="m172.26 203.655c-4.143 0-7.5-3.357-7.5-7.5v-24.255c0-4.143 3.357-7.5 7.5-7.5s7.5 3.357 7.5 7.5v24.255c0 4.143-3.357 7.5-7.5 7.5z" fill="#80b4fb"/></g><g><path d="m204.601 189.384c-4.143 0-7.5-3.357-7.5-7.5v-13.256c0-4.143 3.357-7.5 7.5-7.5s7.5 3.357 7.5 7.5v13.256c0 4.142-3.357 7.5-7.5 7.5z" fill="#80b4fb"/></g><g><path d="m204.601 223.291c-4.143 0-7.5-3.357-7.5-7.5v-4.255c0-4.143 3.357-7.5 7.5-7.5s7.5 3.357 7.5 7.5v4.255c0 4.143-3.357 7.5-7.5 7.5z" fill="#80b4fb"/></g><g><path d="m183.426 280.272c-4.143 0-7.5-3.357-7.5-7.5v-45.816c0-4.143 3.357-7.5 7.5-7.5s7.5 3.357 7.5 7.5v45.816c0 4.143-3.357 7.5-7.5 7.5z" fill="#80b4fb"/></g><g><path d="m170.871 333.019c-4.143 0-7.5-3.357-7.5-7.5v-11.21c0-4.143 3.357-7.5 7.5-7.5s7.5 3.357 7.5 7.5v11.21c0 4.142-3.358 7.5-7.5 7.5z" fill="#80b4fb"/></g><g><path d="m204.601 396.16c-4.143 0-7.5-3.357-7.5-7.5v-33.881c0-4.143 3.357-7.5 7.5-7.5s7.5 3.357 7.5 7.5v33.881c0 4.143-3.357 7.5-7.5 7.5z" fill="#80b4fb"/></g><g><path d="m172.26 384.225c-4.143 0-7.5-3.357-7.5-7.5v-13.091c0-4.143 3.357-7.5 7.5-7.5s7.5 3.357 7.5 7.5v13.091c0 4.142-3.357 7.5-7.5 7.5z" fill="#80b4fb"/></g></g><g><g><path d="m339.739 203.655c-4.143 0-7.5-3.357-7.5-7.5v-24.255c0-4.143 3.357-7.5 7.5-7.5s7.5 3.357 7.5 7.5v24.255c0 4.143-3.358 7.5-7.5 7.5z" fill="#80b4fb"/></g><g><path d="m307.398 189.384c-4.143 0-7.5-3.357-7.5-7.5v-13.256c0-4.143 3.357-7.5 7.5-7.5s7.5 3.357 7.5 7.5v13.256c0 4.142-3.357 7.5-7.5 7.5z" fill="#80b4fb"/></g><g><path d="m307.398 223.291c-4.143 0-7.5-3.357-7.5-7.5v-4.255c0-4.143 3.357-7.5 7.5-7.5s7.5 3.357 7.5 7.5v4.255c0 4.143-3.357 7.5-7.5 7.5z" fill="#80b4fb"/></g><g><path d="m328.574 280.272c-4.143 0-7.5-3.357-7.5-7.5v-45.816c0-4.143 3.357-7.5 7.5-7.5s7.5 3.357 7.5 7.5v45.816c0 4.143-3.358 7.5-7.5 7.5z" fill="#80b4fb"/></g><g><path d="m341.129 333.019c-4.143 0-7.5-3.357-7.5-7.5v-11.21c0-4.143 3.357-7.5 7.5-7.5s7.5 3.357 7.5 7.5v11.21c0 4.142-3.357 7.5-7.5 7.5z" fill="#80b4fb"/></g><g><path d="m307.398 396.16c-4.143 0-7.5-3.357-7.5-7.5v-33.881c0-4.143 3.357-7.5 7.5-7.5s7.5 3.357 7.5 7.5v33.881c0 4.143-3.357 7.5-7.5 7.5z" fill="#80b4fb"/></g><g><path d="m339.739 384.225c-4.143 0-7.5-3.357-7.5-7.5v-13.091c0-4.143 3.357-7.5 7.5-7.5s7.5 3.357 7.5 7.5v13.091c0 4.142-3.358 7.5-7.5 7.5z" fill="#80b4fb"/></g></g></g><path d="m84.41 59.91h343.18v33.998c0 7.921-6.422 14.343-14.343 14.343h-314.494c-7.921 0-14.343-6.422-14.343-14.343z" fill="#f6f1f1"/><path d="m403.83 59.91v33.998c0 7.921-6.422 14.343-14.343 14.343h23.76c7.921 0 14.343-6.421 14.343-14.343v-33.998z" fill="#efe7e4"/><g><path d="m462.807 67.41h-413.614c-4.143 0-7.5-3.357-7.5-7.5s3.357-7.5 7.5-7.5h413.614c4.143 0 7.5 3.357 7.5 7.5s-3.357 7.5-7.5 7.5z" fill="#454045"/></g><g><path d="m265.824 91.58h-19.648c-4.143 0-7.5-3.357-7.5-7.5s3.357-7.5 7.5-7.5h19.648c4.143 0 7.5 3.357 7.5 7.5s-3.358 7.5-7.5 7.5z" fill="#da4a54"/></g><path d="m427.59 504.502h-343.18v-35.682c0-10.408 8.437-18.845 18.845-18.845h305.49c10.408 0 18.845 8.437 18.845 18.845z" fill="#f6f1f1"/><path d="m408.745 449.974h-23.76c10.408 0 18.845 8.437 18.845 18.845v35.682h23.76v-35.682c0-10.407-8.437-18.845-18.845-18.845z" fill="#efe7e4"/><g><g><path d="m139.03 485.738h-13.586c-4.143 0-7.5-3.357-7.5-7.5s3.357-7.5 7.5-7.5h13.586c4.143 0 7.5 3.357 7.5 7.5s-3.358 7.5-7.5 7.5z" fill="#80b4fb"/></g><g><path d="m386.556 485.738h-205.558c-4.143 0-7.5-3.357-7.5-7.5s3.357-7.5 7.5-7.5h205.559c4.143 0 7.5 3.357 7.5 7.5s-3.358 7.5-7.501 7.5z" fill="#80b4fb"/></g></g><g><path d="m462.807 512h-413.614c-4.143 0-7.5-3.357-7.5-7.5s3.357-7.5 7.5-7.5h413.614c4.143 0 7.5 3.357 7.5 7.5s-3.357 7.5-7.5 7.5z" fill="#454045"/></g></g></svg>