<svg height="512" viewBox="0 0 60 58" width="512" xmlns="http://www.w3.org/2000/svg"><g id="023---Teleport" fill="none" transform="translate(-1)"><g fill="#f0c419"><path id="Shape" d="m12 42.5c-.4620038.017082-.8754894-.2847625-1-.73l-10-35.5c-.09646171-.35726559.00500292-.73885432.26617314-1.0010254.26117022-.26217109.64236807-.36509451 1-.27.35763193.0950945.63736515.37375981.73382686.7310254l10 35.5c.0865228.307696.0207452.6382135-.1769906.8893381-.1977359.2511245-.5036028.3925954-.8230094.3806619z"/><path id="Shape" d="m50 42.5c-.3194066.0119335-.6252735-.1295374-.8230094-.3806619-.1977358-.2511246-.2635134-.5816421-.1769906-.8893381l10-35.5c.0964617-.3572656.3761949-.63593092.7338269-.73102543.3576319-.09509451.7388297.00782891 1 .27000001.2611702.26217109.3626348.64375983.2661731 1.00102542l-10 35.5c-.1245106.4452375-.5379962.747082-1 .73z"/><path id="Shape" d="m13 19c-.4736615.0126631-.8911882-.3088324-1-.77l-3-13c-.12702549-.55228475.21771525-1.10297451.77-1.23.5522847-.12702549 1.1029745.21771525 1.23.77l3 13c.0715179.3021091-.0013372.6203002-.1971841.8611918-.1958468.2408916-.4924693.377158-.8028159.3688082z"/><path id="Shape" d="m17 36c-.4706972.0137136-.8871845-.3028167-1-.76l-3-12c-.1325483-.5522847.2077153-1.1074517.76-1.24s1.1074517.2077153 1.24.76l3 12c.0751846.3035358.0040503.6247663-.1922534.8681828-.1963036.2434165-.4951725.3809901-.8077466.3718172z"/><path id="Shape" d="m49 19c-.3103466.0083498-.6069691-.1279166-.8028159-.3688082-.1958469-.2408916-.268702-.5590827-.1971841-.8611918l3-13c.0821711-.35726559.3486992-.64355486.6991858-.7510254.3504867-.10747055.7316845-.01979505 1 .23.2683156.24979504.3829853.62375981.3008142.9810254l-3 13c-.1088118.4611676-.5263385.7826631-1 .77z"/><path id="Shape" d="m45 36c-.3125741.0091729-.611443-.1284007-.8077466-.3718172-.1963037-.2434165-.267438-.564647-.1922534-.8681828l3-12c.1491291-.5161023.6793873-.8221608 1.2008781-.6931322.5214908.1290287.8478565.6470354.7391219 1.1731322l-3 12c-.1074334.4354748-.4916828.7461445-.94.76z"/></g><path id="Shape" d="m57 52.5c0 3-11.64 5.5-26 5.5s-26-2.46-26-5.5c.0038363-.1936862.04811655-.3844319.13-.56l2.71-4.67c3.7 2.19 42.66 2.19 46.36 0l2.71 4.67c.0681704.1784969.0988081.3691316.09.56z" fill="#3f5c6c"/><path id="Shape" d="m54.18 47.26c-8.41 5-38 5-46.36 0 4.18-7.15 3.18-5.59 3.18-5.26 0 2.21 40 2.21 40 0 0-.36-.93-1.82 3.18 5.26z" fill="#547580"/><path id="Shape" d="m21.79 38.45c-2.24.23-10.79 1.3-10.79 3.55s9 4 20 4 20-1.79 20-4-8.55-3.32-10.79-3.55z" fill="#f3d55b"/><path id="Shape" d="m26 10.89c-.5522847 0-1-.4477153-1-1-.0035998-.25758195.0131187-.51504669.05-.77.0535898-.3572656.2937078-.65880279.6299038-.79102543s.7173939-.07504296 1 .15c.2826062.22504296.4236861.58375983.3700962.94102543-.0102663.15649848-.0102663.31350152 0 .47.0003429.2741113-.1118495.5363464-.310344.7253888-.1984946.1890423-.4658874.288317-.739656.2746112z" fill="#000"/><path id="Shape" d="m36 10.89c-.5522847 0-1-.4477153-1-1 .0102663-.15649848.0102663-.31350152 0-.47-.0535899-.3572656.08749-.71598247.3700962-.94102543.2826061-.22504296.663804-.28222264 1-.15s.576314.43375983.6299038.79102543c.0201979.25626931.0201979.51373069 0 .77 0 .2652165-.1053568.5195704-.2928932.7071068s-.4418903.2928932-.7071068.2928932z" fill="#000"/><path id="Shape" d="m39 10v7h-3v-8s-.83-2-5-2-5 2-5 2v8h-3v-7s0-10 8-10 8 10 8 10z" fill="#e64c3c"/><path id="Shape" d="m42 20v2c0 1.3260824-.5267842 2.597852-1.4644661 3.5355339s-2.2094515 1.4644661-3.5355339 1.4644661h-6v.63c-.0042918.3700243-.2125731.7074299-.541434.877097s-.7245343.1438559-1.028566-.067097c-1.2838081-.9430872-2.8370426-1.4479761-4.43-1.44-2.7614237 0-5-2.2385763-5-5v-2c0-1.6568542 1.3431458-3 3-3h16c1.6568542 0 3 1.3431458 3 3z" fill="#e64c3c"/><path id="Shape" d="m36 23h-10c-.53 0-.68-.27-1.71-1.29-.3921222-.3921222-.3921222-1.0278778 0-1.42s1.0278778-.3921222 1.42 0l.7.71h9.18l.7-.71c.3921222-.3921222 1.0278778-.3921222 1.42 0s.3921222 1.0278778 0 1.42c-1.03 1.03-1.19 1.29-1.71 1.29z" fill="#c03a2b"/><path id="Shape" d="m36 9.89v7.11h-10v-7.11c0 2.7614237 2.2385763 5 5 5s5-2.2385763 5-5z" fill="#c03a2b"/><path id="Shape" d="m36 9v.89c0 2.7614237-2.2385763 5-5 5s-5-2.2385763-5-5v-.89s.83-2 5-2 5 2 5 2z" fill="#fdd7ad"/><path id="Shape" d="m40.16 40.7c-5.9827183 1.7400132-12.3372817 1.7400132-18.32 0-.3098978-.0954156-.5542949-.3351668-.65564-.6431765-.1013452-.3080097-.0470562-.6460382.14564-.9068235 1.86-2.4 3.18-9.15 3.67-12.15 1.5929574-.0079761 3.1461919.4969128 4.43 1.44.3040317.2109529.6997051.2367641 1.028566.067097s.5371422-.5070727.541434-.877097v-.63h6c.49 3 1.81 9.75 3.67 12.15.1926962.2607853.2469852.5988138.14564.9068235-.1013451.3080097-.3457422.5477609-.65564.6431765z" fill="#c03a2b"/><path id="Shape" d="m33 22v5h-2v-5c0-.5522847.4477153-1 1-1s1 .4477153 1 1z" fill="#c03a2b"/><path id="Shape" d="m37.17 28c-.09 0-1.35 0-6.17 0v.63c-.0042918.3700243-.2125731.7074299-.541434.877097s-.7245343.1438559-1.028566-.067097c-1.336798-.9657497-2.9511418-1.4711094-4.6-1.44.11-.62.17-1 .17-1 1.5929574-.0079761 3.1461919.4969128 4.43 1.44.3040317.2109529.6997051.2367641 1.028566.067097s.5371422-.5070727.541434-.877097v-.63h6s.06.37.17 1z" fill="#802f34"/><path id="Rectangle-path" d="m26 16h10v1h-10z" fill="#802f34"/><path id="Rectangle-path" d="m23 16h3v1h-3z" fill="#c03a2b"/><path id="Rectangle-path" d="m36 16h3v1h-3z" fill="#c03a2b"/><path id="Shape" d="m30 33.12c-.08.69-.83 6.31-2.44 8.72-.77-.08-1.48-.18-2.14-.29.022905-.2092688.1184448-.4038868.27-.55 1.09-1.1 2-5.57 2.33-8.12.0428719-.3572656.273086-.6645207.603923-.8060254.3308371-.1415047.7120349-.0957609 1 .12.2879652.2157609.4389489.5687598.396077.9260254z" fill="#802f34"/><path id="Shape" d="m36.59 41.55c-.66.11-1.37.21-2.14.29-1.61-2.41-2.36-8-2.44-8.72-.0662742-.5522847.3277153-1.0537258.88-1.12.5522847-.0662741 1.0537258.3277153 1.12.88.32 2.55 1.24 7 2.33 8.12.1442162.1490514.2325281.3433376.25.55z" fill="#802f34"/></g></svg>