<svg height="512pt" viewBox="-1 0 512 512" width="512pt" xmlns="http://www.w3.org/2000/svg"><path d="m489.21875 511.792969h-230.15625c-12.027344 0-21.773438-9.75-21.773438-21.773438v-41.667969c0-12.027343 9.746094-21.777343 21.773438-21.777343h230.15625c12.027344 0 21.773438 9.75 21.773438 21.777343v41.667969c0 12.023438-9.746094 21.773438-21.773438 21.773438zm0 0" fill="#fa0"/><path d="m510.992188 448.355469v41.664062c0 12.023438-9.75 21.773438-21.773438 21.773438h-32.429688c12.023438 0 21.773438-9.75 21.773438-21.773438v-41.664062c0-12.027344-9.75-21.777344-21.773438-21.777344h32.429688c12.023438 0 21.773438 9.75 21.773438 21.777344zm0 0" fill="#ff9500"/><path d="m471.03125 426.480469h-230.15625c-12.027344 0-21.773438-9.75-21.773438-21.777344v-41.667969c0-12.023437 9.746094-21.773437 21.773438-21.773437h230.15625c12.027344 0 21.773438 9.75 21.773438 21.773437v41.667969c0 12.027344-9.75 21.777344-21.773438 21.777344zm0 0" fill="#ffcd6b"/><path d="m492.800781 363.035156v41.664063c0 12.027343-9.75 21.777343-21.773437 21.777343h-32.429688c12.035156 0 21.785156-9.75 21.785156-21.777343v-41.664063c0-12.023437-9.75-21.773437-21.785156-21.773437h32.429688c12.023437 0 21.773437 9.75 21.773437 21.773437zm0 0" fill="#ffc143"/><path d="m375.242188 511.792969h-230.152344c-12.027344 0-21.777344-9.75-21.777344-21.773438v-41.667969c0-12.027343 9.75-21.777343 21.777344-21.777343h230.152344c12.027343 0 21.777343 9.75 21.777343 21.777343v41.667969c0 12.023438-9.75 21.773438-21.777343 21.773438zm0 0" fill="#ffcd6b"/><path d="m375.242188 341.164062h-230.152344c-12.027344 0-21.777344-9.75-21.777344-21.773437v-41.667969c0-12.027344 9.75-21.777344 21.777344-21.777344h230.152344c12.027343 0 21.777343 9.75 21.777343 21.777344v41.667969c0 12.023437-9.75 21.773437-21.777343 21.773437zm0 0" fill="#ffcd6b"/><path d="m375.242188 170.535156h-230.152344c-12.027344 0-21.777344-9.75-21.777344-21.773437v-41.667969c0-12.027344 9.75-21.777344 21.777344-21.777344h230.152344c12.027343 0 21.777343 9.75 21.777343 21.777344v41.667969c0 12.023437-9.75 21.773437-21.777343 21.773437zm0 0" fill="#ffcd6b"/><g fill="#fa0"><path d="m375.242188 426.480469h-230.152344c-12.027344 0-21.777344-9.75-21.777344-21.777344v-41.667969c0-12.023437 9.75-21.773437 21.777344-21.773437h230.152344c12.027343 0 21.777343 9.75 21.777343 21.773437v41.667969c0 12.027344-9.75 21.777344-21.777343 21.777344zm0 0"/><path d="m385.554688 255.851562h-230.15625c-12.027344 0-21.773438-9.75-21.773438-21.777343v-41.667969c0-12.023438 9.746094-21.773438 21.773438-21.773438h230.15625c12.027343 0 21.773437 9.75 21.773437 21.773438v41.667969c0 12.027343-9.75 21.777343-21.773437 21.777343zm0 0"/><path d="m385.554688 85.21875h-230.15625c-12.027344 0-21.773438-9.746094-21.773438-21.773438v-41.667968c0-12.023438 9.746094-21.77343775 21.773438-21.77343775h230.15625c12.027343 0 21.773437 9.74999975 21.773437 21.77343775v41.667968c0 12.027344-9.75 21.773438-21.773437 21.773438zm0 0"/></g><path d="m397.011719 448.355469v41.664062c0 12.023438-9.738281 21.773438-21.773438 21.773438h-32.75c12.023438 0 21.773438-9.75 21.773438-21.773438v-41.664062c0-12.027344-9.75-21.777344-21.773438-21.777344h32.75c12.035157 0 21.773438 9.75 21.773438 21.777344zm0 0" fill="#ffc143"/><path d="m397.011719 277.71875v41.675781c0 12.023438-9.738281 21.773438-21.773438 21.773438h-32.75c12.023438 0 21.773438-9.75 21.773438-21.773438v-41.675781c0-12.027344-9.75-21.777344-21.773438-21.777344h32.75c12.035157 0 21.773438 9.75 21.773438 21.777344zm0 0" fill="#ffc143"/><path d="m397.011719 107.09375v41.664062c0 12.027344-9.738281 21.777344-21.773438 21.777344h-32.75c12.023438 0 21.773438-9.75 21.773438-21.777344v-41.664062c0-12.027344-9.75-21.777344-21.773438-21.777344h32.75c12.035157 0 21.773438 9.75 21.773438 21.777344zm0 0" fill="#ffc143"/><path d="m397.011719 363.035156v41.664063c0 12.027343-9.738281 21.777343-21.773438 21.777343h-32.75c12.023438 0 21.773438-9.75 21.773438-21.777343v-41.664063c0-12.023437-9.75-21.773437-21.773438-21.773437h32.75c12.035157 0 21.773438 9.75 21.773438 21.773437zm0 0" fill="#ff9500"/><path d="m407.328125 192.410156v41.664063c0 12.027343-9.75 21.777343-21.773437 21.777343h-32.761719c12.035156 0 21.777343-9.75 21.777343-21.777343v-41.664063c0-12.023437-9.742187-21.773437-21.777343-21.773437h32.761719c12.023437 0 21.773437 9.75 21.773437 21.773437zm0 0" fill="#ff9500"/><path d="m407.328125 21.773438v41.675781c0 12.027343-9.75 21.777343-21.773437 21.777343h-32.761719c12.035156 0 21.777343-9.75 21.777343-21.777343v-41.675781c0-12.023438-9.742187-21.773438-21.773437-21.773438h32.757813c12.023437 0 21.773437 9.75 21.773437 21.773438zm0 0" fill="#ff9500"/><path d="m260.164062 381.910156c0 71.84375-58.238281 130.085938-130.082031 130.085938s-130.082031-58.242188-130.082031-130.085938c0-71.839844 58.238281-130.082031 130.082031-130.082031s130.082031 58.242187 130.082031 130.082031zm0 0" fill="#fa0"/><path d="m260.167969 381.90625c0 71.851562-58.242188 130.09375-130.082031 130.09375-35.304688 0-67.332032-14.0625-90.765626-36.910156 18.5 10.109375 39.71875 15.855468 62.277344 15.855468 71.839844 0 130.082032-58.242187 130.082032-130.082031 0-36.546875-15.070313-69.566406-39.339844-93.203125 40.410156 22.074219 67.828125 64.953125 67.828125 114.246094zm0 0" fill="#ff9500"/><path d="m219.074219 381.910156c0 49.152344-39.84375 88.992188-88.992188 88.992188-49.148437 0-88.992187-39.839844-88.992187-88.992188 0-49.148437 39.84375-88.988281 88.992187-88.988281 49.148438 0 88.992188 39.839844 88.992188 88.988281zm0 0" fill="#ffcd6b"/><path d="m219.070312 381.90625c0 49.152344-39.835937 89-88.984374 89-26.394532 0-50.101563-11.492188-66.386719-29.742188 10.609375 4.472657 22.265625 6.941407 34.503906 6.941407 49.152344 0 88.996094-39.847657 88.996094-89 0-22.746094-8.53125-43.503907-22.589844-59.234375 32.007813 13.484375 54.460937 45.132812 54.460937 82.035156zm0 0" fill="#ffc143"/><path d="m136.070312 478.425781c-4.03125 0-7.421874-3.125-7.695312-7.207031-.28125-4.257812 2.9375-7.9375 7.191406-8.21875 6.265625-.414062 12.472656-1.558594 18.441406-3.394531 4.078126-1.253907 8.398438 1.035156 9.648438 5.113281 1.253906 4.074219-1.035156 8.394531-5.109375 9.648438-7.109375 2.1875-14.5 3.546874-21.957031 4.042968-.171875.011719-.347656.015625-.519532.015625zm-35.457031-4.792969c-.847656 0-1.707031-.140624-2.554687-.4375-7.027344-2.464843-13.78125-5.757812-20.074219-9.789062-3.589844-2.300781-4.636719-7.074219-2.335937-10.664062 2.296874-3.59375 7.074218-4.640626 10.664062-2.339844 5.285156 3.382812 10.957031 6.152344 16.859375 8.21875 4.023437 1.414062 6.140625 5.820312 4.726563 9.84375-1.113282 3.179687-4.097657 5.167968-7.285157 5.167968zm87.039063-16.132812c-2.1875 0-4.363282-.925781-5.890625-2.722656-2.757813-3.253906-2.359375-8.125.890625-10.886719 4.777344-4.054687 9.089844-8.667969 12.820312-13.707031 2.535156-3.425782 7.371094-4.152344 10.796875-1.617188 3.429688 2.539063 4.152344 7.371094 1.617188 10.800782-4.429688 5.992187-9.558594 11.476562-15.242188 16.296874-1.449219 1.234376-3.226562 1.835938-4.992187 1.835938zm-131.15625-17.8125c-2.46875 0-4.890625-1.179688-6.386719-3.375-4.203125-6.167969-7.6875-12.820312-10.351563-19.769531-1.527343-3.980469.460938-8.445313 4.441407-9.976563s8.449219.460938 9.976562 4.445313c2.238281 5.835937 5.164063 11.421875 8.695313 16.605469 2.402344 3.523437 1.492187 8.328124-2.03125 10.730468-1.332032.90625-2.847656 1.339844-4.34375 1.339844zm160.234375-29.648438c-.582031 0-1.175781-.066406-1.769531-.207031-4.152344-.972656-6.726563-5.128906-5.753907-9.28125 1.425781-6.070312 2.148438-12.339843 2.148438-18.636719 0-4.265624 3.457031-7.722656 7.71875-7.722656 4.265625 0 7.722656 3.457032 7.722656 7.722656 0 7.484376-.859375 14.941407-2.554687 22.164063-.835938 3.558594-4.007813 5.960937-7.511719 5.960937zm-175.570313-23.84375c-.097656 0-.195312-.003906-.296875-.007812-4.261719-.160156-7.585937-3.746094-7.421875-8.007812.28125-7.472657 1.429688-14.894532 3.40625-22.058594 1.132813-4.109375 5.386719-6.523438 9.496094-5.386719 4.113281 1.132813 6.523438 5.386719 5.390625 9.496094-1.660156 6.015625-2.625 12.253906-2.863281 18.535156-.15625 4.164063-3.582032 7.429687-7.710938 7.429687zm173.210938-25.183593c-3.21875 0-6.21875-2.027344-7.3125-5.242188-2.007813-5.921875-4.714844-11.621093-8.046875-16.933593-2.265625-3.613282-1.167969-8.382813 2.445312-10.644532 3.613281-2.265625 8.378907-1.167968 10.640625 2.445313 3.96875 6.328125 7.191406 13.117187 9.585938 20.167969 1.371094 4.039062-.792969 8.421874-4.828125 9.792968-.824219.28125-1.664063.414063-2.484375.414063zm-153.792969-26.964844c-1.691406 0-3.394531-.554687-4.820313-1.695313-3.328124-2.667968-3.867187-7.527343-1.199218-10.855468 4.660156-5.816406 9.992187-11.097656 15.855468-15.699219 3.355469-2.628906 8.207032-2.046875 10.839844 1.308594 2.632813 3.355469 2.046875 8.207031-1.308594 10.839843-4.929687 3.871094-9.414062 8.3125-13.332031 13.207032-1.527343 1.902344-3.769531 2.894531-6.035156 2.894531zm120.289063-17.496094c-1.523438 0-3.0625-.449219-4.40625-1.386719-5.152344-3.585937-10.714844-6.566406-16.527344-8.867187-3.964844-1.566406-5.910156-6.050781-4.34375-10.019531 1.566406-3.964844 6.054687-5.910156 10.015625-4.34375 6.925781 2.738281 13.546875 6.289062 19.679687 10.558594 3.5 2.4375 4.359375 7.25 1.925782 10.75-1.5 2.152343-3.902344 3.308593-6.34375 3.308593zm-73.679688-12.9375c-3.417969 0-6.539062-2.28125-7.457031-5.742187-1.09375-4.121094 1.359375-8.347656 5.480469-9.441406 7.179687-1.90625 14.613281-2.980469 22.089843-3.191407 4.25-.105469 7.816407 3.238281 7.9375 7.5.121094 4.261719-3.234375 7.816407-7.5 7.9375-6.289062.175781-12.535156 1.078125-18.5625 2.679688-.664062.175781-1.332031.257812-1.988281.257812zm0 0" fill="#cb8000"/></svg>