<?xml version="1.0" encoding="iso-8859-1"?>
<!-- Generator: Adobe Illustrator 19.0.0, SVG Export Plug-In . SVG Version: 6.00 Build 0)  -->
<svg version="1.1" id="Layer_1" xmlns="http://www.w3.org/2000/svg" xmlns:xlink="http://www.w3.org/1999/xlink" x="0px" y="0px"
	 viewBox="0 0 512 512" style="enable-background:new 0 0 512 512;" xml:space="preserve">
<g>
	<path style="fill:#554141;" d="M241.451,410.657v44.539c0,5.873,4.82,10.681,10.711,10.681h56.705
		c5.89,0,10.708-4.808,10.708-10.681v-44.539L241.451,410.657L241.451,410.657z"/>
	<path style="fill:#554141;" d="M144.849,410.657v44.539c0,5.873,4.818,10.681,10.71,10.681h56.702
		c5.892,0,10.71-4.808,10.71-10.681v-44.539L144.849,410.657L144.849,410.657z"/>
	<path style="fill:#554141;" d="M15.175,410.657v44.539c0,5.873,4.819,10.681,10.711,10.681h88.706
		c5.889,0,10.71-4.808,10.71-10.681v-44.539L15.175,410.657L15.175,410.657z"/>
</g>
<path style="opacity:0.1;enable-background:new    ;" d="M48.864,455.196v-44.539H15.175v44.539c0,5.873,4.819,10.681,10.711,10.681
	h33.688C53.682,465.876,48.864,461.069,48.864,455.196z"/>
<path style="fill:#D2873C;" d="M443.111,247.738h-52.327v26.025h-97.155c-4.239,0-9.292-3.134-11.234-6.963l-83.841-165.5H15.175
	v310.15c0,11.579,9.27,20.998,20.667,20.998h469.269c3.806,0,6.889-3.135,6.889-7V317.732
	C512,279.138,481.097,247.738,443.111,247.738z"/>
<g style="opacity:0.1;">
	<path d="M49.044,411.451V101.3H15.175v310.15c0,11.579,9.27,20.998,20.667,20.998h33.869
		C58.315,432.448,49.044,423.03,49.044,411.451z"/>
</g>
<path style="fill:#554141;" d="M338.156,410.657v44.539c0,5.873,4.82,10.681,10.71,10.681h152.424
	c5.89,0,10.709-4.808,10.709-10.681v-44.539L338.156,410.657L338.156,410.657z"/>
<path style="fill:#965930;" d="M15.175,272.42h26.969c9.121,0,16.584-7.583,16.584-16.849V152.234c0-9.269-7.463-16.85-16.584-16.85
	H15.175C15.175,135.384,15.175,272.42,15.175,272.42z"/>
<path style="opacity:0.1;enable-background:new    ;" d="M274.995,455.196v-44.539h-33.544v44.539
	c0,5.873,4.82,10.681,10.711,10.681h33.543C279.814,465.876,274.995,461.069,274.995,455.196z"/>
<path style="opacity:0.1;enable-background:new    ;" d="M178.392,455.196v-44.539h-33.543v44.539
	c0,5.873,4.818,10.681,10.71,10.681h33.543C183.21,465.876,178.392,461.069,178.392,455.196z"/>
<path style="opacity:0.1;enable-background:new    ;" d="M371.699,455.196v-44.539h-33.543v44.539c0,5.873,4.82,10.681,10.71,10.681
	h33.543C376.521,465.876,371.699,461.069,371.699,455.196z"/>
<path style="fill:#965930;" d="M326.475,247.738c-4.24,0-9.294-3.134-11.234-6.962l-68.273-134.768
	c-0.918-1.813-2.54-3.466-4.438-4.708h-55.681c1.223,1.608,4.426,7.304,6.244,10.887l89.779,177.22
	c1.94,3.83,6.995,6.963,11.234,6.963h100.864v-48.633h-68.496V247.738z"/>
<path style="opacity:0.1;enable-background:new    ;" d="M308.219,289.408l-89.78-177.22c-1.816-3.583-5.021-9.279-6.244-10.887
	h-25.344c1.223,1.608,4.426,7.304,6.244,10.887l89.779,177.22c1.94,3.83,6.995,6.963,11.234,6.963h25.344
	C315.212,296.371,310.159,293.238,308.219,289.408z"/>
<path style="fill:#D2873C;" d="M443.111,247.738h-51.849v149.435H512v-79.441C512,279.138,481.097,247.738,443.111,247.738z"/>
<path style="fill:#554141;" d="M443.111,247.738h-51.849v149.435H512v-79.441C512,279.138,481.097,247.738,443.111,247.738z"/>
<rect x="391.262" y="247.734" style="opacity:0.1;enable-background:new    ;" width="33.954" height="149.431"/>
<path style="fill:#965930;" d="M91.129,378.049c0.015-0.572,0.029-1.143,0.029-1.719c0-38.106-30.403-68.998-67.909-68.998
	c-2.732,0-5.424,0.184-8.074,0.502V411.45c0,11.579,9.27,20.998,20.667,20.998h26.895h442.374c3.806,0,6.889-3.135,6.889-7v-47.4
	L91.129,378.049L91.129,378.049z"/>
<path style="opacity:0.1;enable-background:new    ;" d="M49.044,411.451v-98.952c-7.954-3.323-16.662-5.166-25.795-5.166
	c-2.732,0-5.424,0.184-8.074,0.502v103.616c0,11.578,9.27,20.998,20.667,20.998h26.895h6.975
	C58.315,432.448,49.044,423.03,49.044,411.451z"/>
<path style="fill:#554141;" d="M266.627,94.573c0,5.929-4.851,10.779-10.779,10.779H10.778C4.851,105.352,0,100.502,0,94.573V56.901
	c0-5.929,4.851-10.778,10.778-10.778h245.068c5.929,0,10.779,4.85,10.779,10.778v37.672H266.627z"/>
<path style="opacity:0.1;enable-background:new    ;" d="M33.567,94.573V56.901c0-5.929,4.851-10.778,10.778-10.778H10.778
	C4.851,46.123,0,50.973,0,56.901v37.672c0,5.929,4.851,10.779,10.778,10.779h33.567C38.419,105.352,33.567,100.502,33.567,94.573z"
	/>
<g>
	<path style="fill:#554141;" d="M512,402.571H15.175v8.878c0,2.565,0.479,5.016,1.311,7.289H512V402.571z"/>
	<path style="fill:#554141;" d="M42.143,135.383H15.174v26.57h43.552v-9.72C58.726,142.963,51.265,135.383,42.143,135.383z"/>
	<rect x="15.175" y="178.123" style="fill:#554141;" width="43.552" height="17.694"/>
	<rect x="15.175" y="211.988" style="fill:#554141;" width="43.552" height="17.698"/>
	<path style="fill:#554141;" d="M15.175,272.42h26.969c9.121,0,16.584-7.583,16.584-16.849v-9.719H15.175V272.42z"/>
</g>
<g>
	<path style="fill:#FBD33B;" d="M276.788,143.84h-91.121c-4.14-9.41-13.468-15.992-24.293-15.992
		c-14.657,0-26.581,12.057-26.581,26.878c0,14.82,11.924,26.877,26.581,26.877c10.825,0,20.154-6.582,24.294-15.992h91.12
		c6.009,0,10.883-4.873,10.883-10.885C287.671,148.714,282.797,143.84,276.788,143.84z M161.373,165.434
		c-5.742,0-10.413-4.804-10.413-10.708c0-5.904,4.672-10.708,10.413-10.708c5.741,0,10.411,4.804,10.411,10.708
		C171.784,160.631,167.115,165.434,161.373,165.434z"/>
	<path style="fill:#FBD33B;" d="M306.767,207.265h-85.499c-4.141-9.41-13.47-15.992-24.295-15.992
		c-14.656,0-26.58,12.057-26.58,26.877c0,14.821,11.924,26.878,26.58,26.878c10.825,0,20.154-6.582,24.294-15.992h85.5
		c6.009,0,10.882-4.873,10.882-10.886C317.649,212.139,312.777,207.265,306.767,207.265z M196.974,228.859
		c-5.742,0-10.412-4.804-10.412-10.709c0-5.904,4.671-10.708,10.412-10.708c5.741,0,10.412,4.804,10.412,10.708
		C207.386,224.056,202.714,228.859,196.974,228.859z"/>
</g>
<g>
</g>
<g>
</g>
<g>
</g>
<g>
</g>
<g>
</g>
<g>
</g>
<g>
</g>
<g>
</g>
<g>
</g>
<g>
</g>
<g>
</g>
<g>
</g>
<g>
</g>
<g>
</g>
<g>
</g>
</svg>
