<svg height="512" viewBox="0 0 64 64" width="512" xmlns="http://www.w3.org/2000/svg"><g id="flat"><path d="m22 4h20v10h-20z" fill="#f4f4e6"/><path d="m23 3h18v4h-18z" fill="#195c85"/><path d="m23 7v-4l-4 1v5l13 9v-5z" fill="#32b1cc"/><path d="m9 11-4 7v33h10v-28z" fill="#87cee9"/><path d="m5 51h10v4h-10z" fill="#195c85"/><path d="m32 61h-17v-38l-6-12 10-5v3l13 9z" fill="#32b1cc"/><path d="m41 7v-4l4 1v5l-13 9v-5z" fill="#87cee9"/><path d="m15 23 17-5-13-9v-3l-10 5z" fill="#da1c4b"/><path d="m15 27 13-4v4l-13 4z" fill="#da1c4b"/><g fill="#b11e48"><path d="m16.143 18.515-3-5a1 1 0 0 1 .3-1.347l3-2 1.11 1.664-2.205 1.468 2.509 4.182z"/><path d="m19 14h2v2h-2z"/><path d="m21 16h2v2h-2z"/></g><path d="m15 35 12-4v30h-12z" fill="#da1c4b"/><path d="m23 43h-4l1-6h2z" fill="#f9bb4b"/><path d="m20 43h2v15h-2z" fill="#f4f4e6"/><path d="m5 31h6v4h-6z" fill="#195c85"/><path d="m5 23h6v4h-6z" fill="#195c85"/><path d="m5 39h4v2h-4z" fill="#f4f4e6"/><path d="m9 43h6v2h-6z" fill="#f4f4e6"/><path d="m55 11 4 7v33h-10v-28z" fill="#32b1cc"/><path d="m49 51h10v4h-10z" fill="#195c85" transform="matrix(-1 0 0 -1 108 106)"/><path d="m32 61h17v-38l6-12-10-5v3l-13 9z" fill="#87cee9"/><path d="m49 23-17-5 13-9v-3l10 5z" fill="#da1c4b"/><path d="m49 27-13-4v4l13 4z" fill="#da1c4b"/><path d="m47.857 18.515-1.714-1.03 2.509-4.185-2.207-1.471 1.11-1.664 3 2a1 1 0 0 1 .3 1.347z" fill="#b11e48"/><path d="m43 14h2v2h-2z" fill="#b11e48"/><path d="m41 16h2v2h-2z" fill="#b11e48"/><path d="m49 35-12-4v30h12z" fill="#da1c4b"/><path d="m41 43h4l-1-6h-2z" fill="#f9bb4b"/><path d="m42 43h2v15h-2z" fill="#f4f4e6"/><path d="m53 31h6v4h-6z" fill="#195c85" transform="matrix(-1 0 0 -1 112 66)"/><path d="m53 23h6v4h-6z" fill="#195c85" transform="matrix(-1 0 0 -1 112 50)"/><path d="m55 39h4v2h-4z" fill="#f4f4e6"/><path d="m49 43h6v2h-6z" fill="#f4f4e6"/></g></svg>