<?xml version="1.0" encoding="iso-8859-1"?>
<!-- Generator: Adobe Illustrator 19.0.0, SVG Export Plug-In . SVG Version: 6.00 Build 0)  -->
<svg version="1.1" id="Layer_1" xmlns="http://www.w3.org/2000/svg" xmlns:xlink="http://www.w3.org/1999/xlink" x="0px" y="0px"
	 viewBox="0 0 512.001 512.001" style="enable-background:new 0 0 512.001 512.001;" xml:space="preserve">
<path style="fill:#E79275;" d="M416.53,73.81l-75.041-45.864L317.735,2.788c-1.68-1.779-4.018-2.787-6.464-2.787H200.73
	c-2.447,0-4.784,1.008-6.462,2.787l-23.758,25.158L95.414,73.843c-0.517,0.323-12.822,8.098-24.85,25.64
	C54.81,122.46,46.822,150.707,46.822,183.44v275.272c0,4.909,3.98,8.889,8.889,8.889h58.839c4.909,0,8.889-3.98,8.889-8.889V433.1
	L125.47,232l12.801,56.944l4.224,23.091l-19.372,190.176c-0.254,2.501,0.562,4.993,2.248,6.859c1.684,1.867,4.082,2.931,6.595,2.931
	h248.067c0,0,0.016,0,0.022,0c4.91,0,8.889-3.98,8.889-8.889c0-0.527-0.046-1.041-0.132-1.542l-19.607-192.5l17.328-77.082
	l2.03,200.932v25.791c0,4.909,3.98,8.889,8.889,8.889h58.839c4.909,0,8.889-3.98,8.889-8.889V183.44
	C465.179,104.342,417.004,74.098,416.53,73.81z"/>
<polygon style="fill:#D1755D;" points="304.927,49.355 207.155,49.355 196.897,0.001 315.398,0.001 "/>
<path style="fill:#E08870;" d="M95.477,73.805c0,0-48.655,29.676-48.655,109.634c0,42.189,0,174.099,0,242.335
	c0,25.279,0,26.27,0,26.27h76.268h0.349V433.01L125.47,232l12.801,56.944l4.224,7.536l-19.433,190.788
	c-0.239,17.899,0.527,20.236,2.107,21.985c1.58,1.749,3.827,2.748,6.184,2.748H256v-227.69L196.897,0.001l-26.388,27.945
	L95.477,73.805z"/>
<g>
	<path style="fill:#BA5D4A;" d="M223.309,341.96h-1.641c-4.603,0-8.333-3.73-8.333-8.333s3.73-8.333,8.333-8.333h1.641
		c4.602,0,8.333,3.73,8.333,8.333S227.911,341.96,223.309,341.96z"/>
	<path style="fill:#BA5D4A;" d="M223.309,393.668h-1.641c-4.603,0-8.333-3.731-8.333-8.333c0-4.603,3.73-8.333,8.333-8.333h1.641
		c4.602,0,8.333,3.73,8.333,8.333C231.642,389.937,227.911,393.668,223.309,393.668z"/>
	<path style="fill:#BA5D4A;" d="M223.309,445.378h-1.641c-4.603,0-8.333-3.73-8.333-8.333s3.73-8.333,8.333-8.333h1.641
		c4.602,0,8.333,3.73,8.333,8.333C231.642,441.647,227.911,445.378,223.309,445.378z"/>
</g>
<path style="fill:#D3715B;" d="M256.297,284.311l-20.377-98.028c14.247-20.747,25.906-47.111,32.85-76.823
	c9.527-40.764,8.31-79.819-1.343-109.46h44.139c1.279,0,2.525,0.282,3.667,0.799L256.297,284.311z"/>
<g>
	<path style="fill:#FFE8A5;" d="M123.439,458.712V433.1v-0.053v-7.272H46.822v32.937c0,4.909,3.98,8.889,8.889,8.889h58.839
		C119.459,467.6,123.439,463.62,123.439,458.712z"/>
	<path style="fill:#FFE8A5;" d="M388.562,458.712c0,4.909,3.98,8.889,8.889,8.889h58.839c4.909,0,8.889-3.98,8.889-8.889v-32.937
		h-76.616V458.712z"/>
	<polygon style="fill:#FFE8A5;" points="255.998,284.311 315.1,0.001 341.488,27.946 361.231,73.805 331.708,96.715 
		354.465,128.082 	"/>
	<polygon style="fill:#FFE8A5;" points="255.999,284.311 196.897,0.001 170.509,27.946 150.766,73.805 180.29,96.715 
		157.532,128.082 	"/>
</g>
<path style="fill:#BF5E4B;" d="M267.426,0.001h47.972L305.14,49.355h-29.873C274.853,31.251,272.148,14.501,267.426,0.001z"/>
<path style="fill:#D3715B;" d="M67.198,458.712v-6.666v-8.148v-6.666v-11.456v-14.814V183.44v-14.814
	c0-1.813,0.033-3.591,0.082-5.353c0.011-0.421,0.022-0.844,0.036-1.264c0.056-1.605,0.129-3.192,0.223-4.755
	c0.037-0.626,0.082-1.244,0.126-1.865c0.072-1.022,0.153-2.033,0.242-3.035c0.114-1.318,0.246-2.624,0.389-3.924
	c0.054-0.484,0.107-0.968,0.163-1.448c2.184-18.459,7.246-35.228,15.142-50.133c0.43-0.813,0.861-1.611,1.298-2.395
	c0.29-0.52,0.579-1.04,0.877-1.553c0.688-1.2,1.383-2.361,2.082-3.491c0.124-0.201,0.248-0.402,0.373-0.602
	c0.858-1.369,1.722-2.681,2.585-3.948c0.042-0.062,0.08-0.126,0.122-0.187c0.11-0.161,0.22-0.314,0.331-0.474
	c0.168-0.242,0.336-0.483,0.503-0.72c0.207-0.294,0.412-0.583,0.619-0.871c0.178-0.247,0.353-0.491,0.532-0.733
	c0.193-0.266,0.387-0.528,0.579-0.788c0.193-0.26,0.387-0.519,0.579-0.774c0.169-0.223,0.339-0.446,0.508-0.667
	c0.22-0.288,0.44-0.572,0.66-0.853c0.139-0.177,0.276-0.351,0.414-0.526c0.25-0.317,0.5-0.63,0.75-0.939
	c0.102-0.126,0.203-0.251,0.304-0.374c0.287-0.352,0.573-0.699,0.858-1.041c0.059-0.07,0.116-0.138,0.174-0.208
	c0.327-0.389,0.652-0.771,0.977-1.146c0.013-0.018,0.028-0.032,0.041-0.049c2.104-2.433,4.125-4.551,5.999-6.383l-9.355,5.718
	c-0.068,0.042-0.334,0.21-0.768,0.507c-0.046,0.03-0.098,0.068-0.147,0.1c-0.053,0.037-0.102,0.07-0.159,0.11
	c-2.479,1.715-8.745,6.438-15.947,14.763c-0.013,0.017-0.028,0.031-0.041,0.049c-0.324,0.374-0.65,0.757-0.977,1.146
	c-0.059,0.07-0.116,0.138-0.174,0.208c-0.286,0.342-0.572,0.688-0.858,1.041c-0.102,0.123-0.203,0.249-0.304,0.374
	c-0.25,0.308-0.5,0.622-0.75,0.939c-0.139,0.173-0.276,0.348-0.414,0.526c-0.219,0.281-0.44,0.566-0.66,0.853
	c-0.169,0.22-0.339,0.442-0.508,0.667c-0.193,0.256-0.387,0.514-0.579,0.774c-0.193,0.26-0.387,0.522-0.579,0.788
	c-0.178,0.242-0.353,0.487-0.532,0.733c-0.207,0.288-0.412,0.578-0.619,0.871c-0.168,0.238-0.336,0.479-0.503,0.72
	c-0.111,0.16-0.221,0.313-0.331,0.474c-0.042,0.061-0.08,0.124-0.122,0.187c-0.863,1.267-1.728,2.578-2.585,3.948
	c-0.126,0.2-0.249,0.401-0.373,0.602c-0.699,1.13-1.394,2.291-2.082,3.491c-0.298,0.514-0.587,1.034-0.877,1.553
	c-0.437,0.784-0.868,1.582-1.298,2.395c-7.894,14.905-12.957,31.673-15.142,50.133c-0.058,0.48-0.11,0.963-0.163,1.448
	c-0.143,1.3-0.274,2.608-0.389,3.924c-0.089,1.002-0.169,2.014-0.242,3.035c-0.043,0.621-0.089,1.24-0.126,1.865
	c-0.094,1.563-0.168,3.15-0.223,4.755c-0.014,0.42-0.024,0.843-0.036,1.264c-0.049,1.762-0.082,3.541-0.082,5.353v242.335v26.27
	v6.666c0,4.909,3.98,8.889,8.889,8.889h20.377C71.178,467.6,67.198,463.62,67.198,458.712z"/>
<path style="fill:#F2D17E;" d="M67.198,458.712v-6.666v-8.148v-6.666v-11.456H46.822v26.27v6.666c0,4.909,3.98,8.889,8.889,8.889
	h20.376C71.178,467.6,67.198,463.62,67.198,458.712z"/>
<path style="fill:#D3715B;" d="M408.938,458.712v-6.666v-8.148v-6.666v-11.456v-14.814V222.474c0-4.259-3.084-8.333-8.044-8.333
	c-4.96,0-8.14,3.801-8.14,3.801l-0.003-0.003c-4.457,5.801-6.43,14.99-6.43,14.99l2.242,192.847v26.27v6.666
	c0,4.909,3.98,8.889,8.889,8.889h20.376C412.918,467.6,408.938,463.62,408.938,458.712z"/>
<path style="fill:#F2D17E;" d="M408.938,458.712v-6.666v-8.148v-6.666v-11.456h-20.376v26.27v6.666c0,4.909,3.98,8.889,8.889,8.889
	h20.376C412.918,467.6,408.938,463.62,408.938,458.712z"/>
<g>
</g>
<g>
</g>
<g>
</g>
<g>
</g>
<g>
</g>
<g>
</g>
<g>
</g>
<g>
</g>
<g>
</g>
<g>
</g>
<g>
</g>
<g>
</g>
<g>
</g>
<g>
</g>
<g>
</g>
</svg>
