<svg id="Layer_1" enable-background="new 0 0 470.181 470.181" height="512" viewBox="0 0 470.181 470.181" width="512" xmlns="http://www.w3.org/2000/svg"><path d="m141.85 470.181c-8.837 0-16-7.163-16-16s7.163-16 16-16c13.283 0 24.09-10.807 24.09-24.09v-36c0-8.837 7.163-16.005 16-16.005s16 7.158 16 15.995v36.01c0 30.928-25.162 56.09-56.09 56.09z" fill="#c79a83"/><path d="m328.331 470.181c-30.928 0-56.09-25.162-56.09-56.09v-36c0-8.837 7.163-16.005 16-16.005s16 7.158 16 15.995v36.01c0 13.283 10.807 24.09 24.09 24.09 8.837 0 16 7.163 16 16s-7.163 16-16 16z" fill="#c79a83"/><path d="m425.74 239.631-6.98 29.92c-5.78 24.83-24.78 44.44-49.4 51.01l-19.27 5.14c-29.027 64.007-104.694 91.866-168.15 62.39 0-.714-40.419-15.134-61.85-62.39l-19.27-5.14c-24.62-6.57-43.62-26.18-49.4-51.01l-6.98-29.92c-6.23-26.76 4.01-54.68 26.08-71.06 23.641-17.545 21.821-16.28 22.21-16.31-5.51-81.67 59.32-152.08 142.36-152.08 83.057 0 147.879 70.436 142.36 152.08.393.03-1.41-1.22 22.21 16.31 22.071 16.38 32.31 44.3 26.08 71.06z" fill="#ffe773"/><path d="m222.188 244.974-21.98-29.97c-6.161-8.403-2.766-20.389 6.909-24.298l21.98-8.88c3.844-1.553 8.143-1.553 11.986 0l21.98 8.88c9.661 3.903 13.079 15.883 6.909 24.298l-21.98 29.97c-6.391 8.713-19.418 8.705-25.804 0z" fill="#ffaa64"/><path d="m254.016 187.002c3.216 1.281 3.152 5.801-.073 7.059-.166.065-22.016 8.893-22.183 8.96-9.664 3.904-13.083 15.886-6.91 24.3l13.323 18.165c1.791 2.442.137 5.992-2.891 6.025-5.004.055-9.944-2.242-13.091-6.54l-21.98-29.97c-6.156-8.39-2.788-20.373 6.91-24.29 31.554-12.748 24.439-12.653 46.895-3.709z" fill="#ffbd7b"/><path d="m297.711 144.491c0 12.49-10.16 22.66-22.66 22.66s-22.66-10.17-22.66-22.66 10.16-22.66 22.66-22.66 22.66 10.17 22.66 22.66z" fill="#42434d"/><path d="m217.79 144.491c0 12.49-10.16 22.66-22.66 22.66s-22.66-10.17-22.66-22.66 10.16-22.66 22.66-22.66 22.66 10.17 22.66 22.66z" fill="#42434d"/><path d="m197.677 137.036c-4.264 2.204-7.794 5.725-10.004 9.984-3.979 7.668-16.01 4.454-15.088-4.834 1.063-10.698 9.807-19.421 20.715-20.282 8.668-.685 12.101 11.14 4.377 15.132z" fill="#4d4e59"/><path d="m277.552 137.036c-4.264 2.204-7.794 5.725-10.004 9.984-3.979 7.668-16.01 4.454-15.088-4.834 1.063-10.698 9.807-19.421 20.715-20.282 8.668-.685 12.101 11.14 4.377 15.132z" fill="#4d4e59"/><path d="m295.137 13.372c11.455 5.315 6.336 22.569-6.146 20.657-94.38-14.463-175.24 65.323-163.41 158.932l16.28 128.62c1.716 13.527-15.267 17.699-20.533 6.761-11.875-24.663-10.403-30.311-27.777-167.571-14.147-112.019 100.879-194.125 201.586-147.399z" fill="#ffec8f"/><path d="m56.781 284.545c-4.565-9.24-5.025-13.555-12.34-44.914-6.23-26.76 4.01-54.68 26.08-71.06 23.641-17.545 21.821-16.28 22.21-16.31.376 5.577.749 7.952 2.55 22.16l-4.09 3.03c-22.07 16.38-32.31 44.3-26.08 71.06l6.98 29.92c2.491 10.71-11.027 14.783-15.31 6.114z" fill="#ffec8f"/><path d="m401.47 169.961c-16.656 131.567-15.45 129.591-21.79 146.94-6.228 2.804-8.819 3.26-29.59 8.8 5.11-11.27 8.63-23.46 10.26-36.31 17.728-140.063 16.688-131.017 17.1-137.13.469.036 23.435 17.233 24.02 17.7z" fill="#fada86"/><g fill="#e0b7a3"><path d="m197.54 420.781c-3.31 27.79-27.02 49.4-55.69 49.4-8.84 0-16-7.16-16-16s7.16-16 16-16c13.28 0 24.09-10.81 24.09-24.09v-8.25c9.46 6.225 19.978 11.312 31.6 14.94z"/><path d="m344.331 454.181c0 8.84-7.16 16-16 16-28.67 0-52.38-21.61-55.69-49.4 10.749-3.355 21.553-8.328 31.6-14.94v8.25c0 13.28 10.81 24.09 24.09 24.09 8.84 0 16 7.16 16 16z"/></g></svg>